<?xml version="1.0" standalone="no"?>
<!DOCTYPE svg PUBLIC "-//W3C//DTD SVG 1.1//EN" "http://www.w3.org/Graphics/SVG/1.1/DTD/svg11.dtd" >
<svg xmlns="http://www.w3.org/2000/svg" xmlns:xlink="http://www.w3.org/1999/xlink" version="1.1">
<metadata></metadata>
<defs>
<font id="loveloline_bold" horiz-adv-x="1327" >
<font-face units-per-em="2048" ascent="1536" descent="-512" />
<missing-glyph horiz-adv-x="581" />
<glyph horiz-adv-x="0" />
<glyph horiz-adv-x="682" />
<glyph unicode=" "  horiz-adv-x="581" />
<glyph unicode="&#x09;" horiz-adv-x="581" />
<glyph unicode="&#xa0;" horiz-adv-x="581" />
<glyph unicode="!" horiz-adv-x="694" d="M121 190.5q0 49.5 20 92.5q58 141 213 141q80 0 135 -39t78 -102q40 -91 0 -183q-25 -61 -79.5 -100t-133.5 -39q-80 0 -133 38.5t-80 100.5q-20 41 -20 90.5zM152 600v821q0 28 19 49t46 21q28 0 49 -21t21 -49v-821q0 -28 -21 -48t-49 -20q-27 0 -46 20t-19 48z M266 150q8 -24 31 -39t57 -15q66 0 88 56q15 41 0 79q-22 56 -88 56q-34 0 -57 -16t-31 -40q-18 -37 0 -81zM424 600v821q0 31 19.5 50.5t48.5 19.5q28 0 48.5 -20t20.5 -50v-821q0 -28 -20.5 -48t-48.5 -20q-29 0 -48.5 20t-19.5 48z" />
<glyph unicode="&#x22;" horiz-adv-x="530" d="M72 1120v295q0 32 21.5 50t47 18t47 -18t21.5 -50v-295q0 -32 -21.5 -50t-47 -18t-47 18t-21.5 50zM317 1120v295q0 43 34.5 60t69 0t34.5 -60v-295q0 -32 -21.5 -50t-47.5 -18t-47.5 18t-21.5 50z" />
<glyph unicode="$" horiz-adv-x="1159" d="M99.5 150q5.5 19 19 35.5t35.5 20.5t45 -7q94 -50 197.5 -74.5t200 -17t174 43.5t124.5 114t47 188q0 67 -28 122.5t-71 91.5t-99 67.5t-106 51t-98.5 42t-70.5 40.5q-68 53 -75 140q-7 93 61 153q104 88 315 35q62 -15 131 -43q38 -16 41 -54t-25.5 -62.5t-68.5 -8.5 q-202 82 -287 40q-42 -20 -33 -59q5 -21 25 -36q15 -11 65 -32t105 -43.5t120 -63.5t115.5 -89.5t84.5 -125t34 -166.5q0 -198 -113.5 -322.5t-299.5 -153.5v-129q0 -32 -21.5 -50t-47.5 -18t-47.5 18t-21.5 50v123q-71 3 -164 23q-116 23 -229 84q-22 12 -30.5 32.5 t-3 39.5zM113.5 999q-2.5 83 25 166.5t79.5 150t132.5 113t175.5 58.5v141q0 32 21.5 50t47.5 18t47.5 -18t21.5 -50v-137q118 -9 268 -59q24 -8 35.5 -27.5t9 -39.5t-13.5 -38.5t-32 -25t-46 1.5q-375 134 -541 -50q-57 -60 -81 -141.5t-2.5 -168.5t91.5 -148 q47 -42 112.5 -75t118.5 -53t102.5 -45t79.5 -66.5t34 -102.5q4 -84 -57.5 -142.5t-147.5 -64.5q-108 -6 -223 23.5t-211 99.5q-21 15 -26.5 36t3 39.5t23.5 32.5t37 15t43 -13q76 -55 179.5 -82t176 -13.5t66.5 62.5q-2 27 -25.5 46t-65.5 35t-89 33.5t-108.5 52 t-113.5 79.5q-70 61 -107 142.5t-39.5 164.5z" />
<glyph unicode="'" horiz-adv-x="301" d="M72 1120v295q0 32 21.5 50t47 18t47 -18t21.5 -50v-295q0 -32 -21.5 -50t-47 -18t-47 18t-21.5 50z" />
<glyph unicode="," horiz-adv-x="540" d="M20 -205l93 398q4 26 24 39.5t43 7.5q26 -6 39 -27.5t8 -46.5l-71 -326h96l133 361q9 24 31 35t45 2q22 -8 33 -31.5t2 -46.5l-148 -396q-10 -43 -55 -43h-211q-8 0 -14 3q-25 6 -38.5 25.5t-9.5 45.5z" />
<glyph unicode="-" horiz-adv-x="811" d="M69 713.5q0 25.5 18 47t50 21.5h502q32 0 50 -21.5t18 -47t-18 -47t-50 -21.5h-502q-32 0 -50 21.5t-18 47z" />
<glyph unicode="." horiz-adv-x="505" d="M31 184q0 93 62 155t155 62t154 -62t61 -155q0 -90 -61 -152.5t-154 -62.5t-155 62t-62 153zM150 184q0 -42 27.5 -68t70.5 -26q44 0 70 26t26 68q0 43 -26 70t-70 27q-43 0 -70.5 -27t-27.5 -70z" />
<glyph unicode="/" horiz-adv-x="909" d="M28 31q-11 24 7 55l715 1358q13 22 34 30t40 1.5t35 -20.5t18.5 -36t-9.5 -45l-714 -1358q-17 -28 -45 -33t-49 9.5t-32 38.5z" />
<glyph unicode="0" horiz-adv-x="1296" d="M106 735q0 118 16.5 224t56.5 207.5t101 175t157 118.5t218 45q119 0 213.5 -42.5t157 -119t102 -173t56.5 -214.5q4 -25 -7 -44.5t-30.5 -26.5t-40 -6t-37 16t-20.5 41q-14 93 -41.5 168t-73.5 136.5t-117 95.5t-162 34q-96 0 -170 -38.5t-118.5 -99.5t-73 -146.5 t-39 -170.5t-10.5 -180q0 -78 7.5 -149.5t25 -145t49 -133t75 -106.5t109 -73t145.5 -26q91 0 162 33.5t117 95t73.5 136.5t41.5 168q4 26 20.5 41t37 16t40 -6.5t30.5 -27t7 -44.5q-17 -117 -56.5 -213.5t-102 -173t-157.5 -119.5t-213 -43q-122 0 -218 45t-157 118.5 t-101 175t-56.5 207.5t-16.5 224zM408 961q23 115 83 189.5t164 74.5q79 0 136 -49t84 -127t39 -173.5t6 -188.5t-21.5 -171.5t-36.5 -124.5q-41 -87 -112.5 -123.5t-142.5 -20t-120 74.5q-15 19 -34 56t-35.5 83.5t-7 84t52.5 46.5q33 6 52.5 -11.5t26 -45t20 -65 t32.5 -60.5t45.5 -28t54 12t45.5 55q24 52 35.5 158t7 213.5t-37.5 188.5t-89 81q-26 0 -46 -13.5t-33 -39.5t-20.5 -49t-14.5 -56q-5 -25 -22 -39t-37.5 -14t-39 8.5t-29 28.5t-5.5 45z" />
<glyph unicode="1" horiz-adv-x="901" d="M61 1141q0 29 20 49t48 20h264q29 0 49.5 -20t20.5 -49v-1094q0 -29 -20.5 -49.5t-49.5 -20.5q-28 0 -47.5 20.5t-19.5 49.5v1026h-197q-28 0 -48 20t-20 48zM61 1415q0 29 20 48.5t48 19.5h539q28 0 47.5 -19.5t19.5 -48.5v-1368q0 -29 -19.5 -49.5t-47.5 -20.5 q-29 0 -49.5 20.5t-20.5 49.5v1301h-469q-28 0 -48 19.5t-20 47.5z" />
<glyph unicode="2" horiz-adv-x="1183" d="M22.5 0q-20.5 37 4.5 72l544 829q3 5 15.5 23.5t18.5 28.5t14 25.5t10 30t0 27.5q-8 35 -33.5 50t-83.5 12q-56 -1 -120 -20.5t-109 -43.5q-24 -10 -46 -6t-35 20.5t-18 36t4.5 40t32.5 32.5q61 33 143.5 55.5t157.5 22.5q45 1 84 -8t72.5 -28.5t56 -55t29.5 -84.5 q14 -93 -78 -232l-477 -725h819q32 0 50 -21.5t18 -48t-18 -48t-50 -21.5h-942q-43 0 -63.5 37zM136 1380q-4 20 7 40t35 30q182 76 346 70q386 -4 504 -279q33 -80 36.5 -185t-26.5 -188q-23 -70 -84 -161l-211 -322h275q32 0 50 -21.5t18 -47t-18 -47t-50 -21.5h-400 q-42 0 -62 35.5t3 70.5q7 11 74 111.5t115 173.5t98.5 156t60.5 112q21 62 19.5 139.5t-25.5 133.5q-25 61 -64.5 102.5t-91.5 62.5t-103 29t-116 8q-155 0 -295 -57q-24 -10 -45.5 -5t-33.5 22.5t-16 37.5z" />
<glyph unicode="3" horiz-adv-x="1021" d="M60 79q-3 39 26.5 63.5t69.5 7.5q90 -36 177 -47t157.5 3t130.5 44.5t100.5 78t63.5 103t22.5 120t-25.5 128.5q-10 27 -27 54t-29 43.5t-21 34t-7 34t17 34.5q45 50 68.5 112t22.5 123t-22.5 121.5t-65 107.5t-106 81t-146 42t-183.5 -9q-25 -4 -58 -14.5t-54.5 -17.5 t-43.5 -9.5t-38 7.5t-26 34q-9 25 2 51.5t37 36.5q100 41 198 55t181.5 3.5t158.5 -42t131.5 -79t97 -109t60 -131t15.5 -147t-33 -154.5q-22 -60 -57 -107q45 -64 68 -137.5t22 -144.5t-21.5 -141t-62.5 -129t-100.5 -107.5t-135.5 -76t-168 -36t-198 13.5q-71 12 -156 46 q-39 17 -42 56zM94.5 370q-0.5 40 31.5 62.5t73 1.5q20 -10 53 -22t78 -23.5t88 -7.5t67 27q15 14 18.5 34.5t-3.5 38.5t-26.5 30.5t-45.5 12.5q-7 0 -28 -0.5t-31.5 0t-29.5 2t-29 6t-22 12t-17 20.5t-5 30t5 30t17 20.5t22 12t29 6t29.5 2t31.5 0t28 -0.5q65 0 114 -30 t72 -75.5t24.5 -98.5t-19.5 -100t-70.5 -79.5t-118.5 -36.5q-64 -3 -127 9.5t-93.5 24.5t-76.5 33q-38 19 -38.5 59zM95 1102q2 39 44 57q142 72 291 66q69 -3 118.5 -36t70.5 -79.5t19.5 -100t-24.5 -99t-72 -75.5t-114 -30q-7 0 -27.5 -0.5t-32 -0.5t-29.5 1.5t-29 6 t-22 12t-16.5 20.5t-5.5 30q0 38 24.5 54t59.5 16t70 0.5t59.5 16.5t24.5 55q0 32 -23 50.5t-57 20.5q-113 6 -229 -55q-39 -18 -70.5 6.5t-29.5 63.5z" />
<glyph unicode="4" horiz-adv-x="1208" d="M-2 475l389 989q9 25 35.5 36t52.5 1t37 -35.5t2 -52.5l-354 -895h473q28 0 47.5 -19.5t19.5 -47.5v-424q0 -28 -19.5 -48t-47.5 -20t-49 20t-21 48v354h-500q-38 0 -59 29t-6 65zM397 733q0 15 9 27l276 704q11 25 37.5 36t52.5 1q25 -11 36 -36.5t1 -51.5l-242 -612h66 q28 0 47.5 -20t19.5 -48q0 -29 -19.5 -49t-47.5 -20h-166q-29 0 -49.5 20t-20.5 49zM838 27v424q0 28 19.5 47.5t47.5 19.5h185q28 0 47.5 -19.5t19.5 -47.5q0 -29 -19.5 -49.5t-47.5 -20.5h-115v-354q0 -28 -21 -48t-49 -20t-47.5 20t-19.5 48zM838 733v240q0 29 19.5 48 t47.5 19t49 -19t21 -48v-172h115q28 0 47.5 -20t19.5 -48q0 -29 -19.5 -49t-47.5 -20h-185q-28 0 -47.5 20t-19.5 49z" />
<glyph unicode="5" horiz-adv-x="1187" d="M83.5 125.5q3.5 19.5 15 38t32.5 24.5t45 -2q98 -38 223 -55t222 -12q82 5 147 32.5t104 70t63 95.5t28.5 110t-3.5 112t-29 103t-52 81q-105 114 -367 147q-26 1 -44.5 21.5t-18.5 46.5v209q0 28 19.5 47.5t47.5 19.5h418q32 0 50 -21.5t18 -47t-18 -47t-50 -21.5h-348 v-80q516 -82 516 -534q0 -205 -131.5 -336.5t-343.5 -142.5q-108 -6 -247 12.5t-253 60.5q-24 9 -35.5 29t-8 39.5zM118.5 390q2.5 20 13 38t31.5 24.5t46 -1.5q325 -109 442 -43q38 22 39 64q0 63 -94 106q-116 53 -346 55q-33 2 -54.5 19t-21.5 50v717q0 29 20 49.5 t48 20.5h692q32 0 50 -21.5t18 -47t-18 -47t-50 -21.5h-623v-584q509 -23 514 -301q1 -104 -79.5 -160.5t-202.5 -58.5q-156 -3 -379 76q-24 8 -36 27t-9.5 39z" />
<glyph unicode="6" horiz-adv-x="1122" d="M85 383q-20 178 67 397q43 107 93.5 228.5t112 265.5t95.5 227q17 39 54.5 42t62 -25.5t8.5 -67.5q-35 -86 -140 -333.5t-159 -383.5q-113 -286 -15 -465q65 -119 200 -156q130 -35 251 21q126 59 170 187q20 58 20 124q0 147 -82 229t-231 101q-34 4 -50 35.5t-1 62.5 l270 621q17 40 55 42.5t61.5 -27t6.5 -68.5l-238 -547q163 -45 252.5 -161t89.5 -288q0 -230 -154 -363q-125 -108 -303.5 -114.5t-313.5 91.5q-160 116 -182 325zM469 305q0 28 20 48t48 20q46 0 65 35.5t0 71.5t-65 36q-31 0 -49 21t-18 46.5t18 46.5t49 21 q70 0 122.5 -37.5t73.5 -91.5t9.5 -116.5t-58.5 -108.5q-38 -37 -88.5 -52t-88.5 0t-38 60z" />
<glyph unicode="7" horiz-adv-x="1017" d="M32 1141.5q0 25.5 18 47t50 21.5h502q36 0 57.5 -31t4.5 -69l-420 -1087q-6 -17 -18 -28t-26 -13.5t-29 -0.5t-27 10t-21 19.5t-10.5 28t4.5 33.5l387 1001h-404q-32 0 -50 21.5t-18 47zM32 1415.5q0 25.5 18 46.5t50 21h887q36 0 57.5 -30.5t4.5 -68.5l-525 -1361 q-9 -24 -29 -35.5t-39.5 -8t-37.5 15t-23.5 32.5t2.5 45l490 1276h-787q-32 0 -50 21t-18 46.5z" />
<glyph unicode="8" horiz-adv-x="1157" d="M80 455q0 153 88 280q-51 74 -73 162t-14.5 172t44.5 163.5t96.5 139t148.5 95.5t195 36t195.5 -36t149 -95.5t96.5 -138.5t45 -163t-14 -172t-74 -163q55 -78 76 -168.5t9 -175.5t-52 -164t-101.5 -137.5t-147.5 -93.5t-182 -35q-31 0 -49 21t-18 46.5t18 46.5t49 21 q78 0 144.5 30.5t109.5 79.5t68 112.5t27.5 128.5t-19 129t-66.5 112q-19 20 -21.5 39t8 35.5t26.5 40.5t32.5 50t28.5 70t12 95q0 84 -30 152.5t-79 110.5t-112 65t-128 23t-128 -23t-112 -65t-79 -110.5t-30 -152.5q0 -141 90 -238h-4q18 -19 19.5 -37.5t-9 -34.5t-26 -40 t-31.5 -50t-27.5 -69.5t-11.5 -93.5q0 -32 -21.5 -50t-47 -18t-47 18t-21.5 50zM473 311q0 29 20 48.5t48 19.5q36 0 56.5 23t20.5 50.5t-20.5 50.5t-56.5 23q-32 0 -50 21.5t-18 47.5t18 47.5t50 21.5q70 0 123 -38.5t74.5 -93t11 -118t-57.5 -109.5q-38 -38 -90 -54.5 t-90.5 -1t-38.5 61.5zM473 877q0 28 20 47.5t48 19.5q36 0 56.5 23t20.5 51t-20.5 51t-56.5 23q-32 0 -50 21t-18 46.5t18 46.5t50 21q70 0 123 -38t74.5 -92.5t11 -117.5t-57.5 -109q-38 -37 -90 -53t-90.5 -0.5t-38.5 60.5z" />
<glyph unicode="9" horiz-adv-x="1101" d="M82 1022q0 224 151 352q124 105 298 108t304 -96q155 -117 170 -328q12 -165 -67 -364q-50 -125 -149 -359.5t-140 -334.5q-10 -22 -29.5 -32t-38.5 -6t-35.5 15t-21.5 31t4 43q26 62 130.5 310t156.5 382q110 278 13 452q-64 115 -196 148q-127 33 -243 -25 q-123 -60 -162 -191q-14 -49 -14 -105q0 -275 301 -322q33 -4 48 -32.5t1 -59.5l-260 -600q-10 -23 -29.5 -33t-38.5 -6t-35.5 15.5t-21.5 31.5t4 43l232 531q-157 42 -244.5 153.5t-87.5 278.5zM368.5 1057q10.5 60 55.5 104q37 37 86 52t85 0.5t36 -58.5q0 -27 -19.5 -46 t-46.5 -19q-43 0 -61 -34.5t0 -69t61 -34.5q31 0 49 -20.5t18 -45t-18 -45t-49 -20.5q-66 0 -116 36.5t-70.5 88t-10 111.5z" />
<glyph unicode=":" horiz-adv-x="505" d="M31 184q0 93 62 155t155 62t154 -62t61 -155q0 -90 -61 -152.5t-154 -62.5t-155 62t-62 153zM31 735q0 93 62 155t155 62t154 -62t61 -155q0 -90 -61 -152.5t-154 -62.5t-155 62t-62 153zM150 184q0 -42 27.5 -68t70.5 -26q44 0 70 26t26 68q0 43 -26 70t-70 27 q-43 0 -70.5 -27t-27.5 -70zM150 735q0 -42 27.5 -68t70.5 -26q44 0 70 26t26 68q0 43 -26 69.5t-70 26.5q-43 0 -70.5 -26.5t-27.5 -69.5z" />
<glyph unicode=";" horiz-adv-x="505" d="M-27 -205l93 398q4 26 24 39.5t43 7.5q26 -6 39 -27.5t8 -46.5l-71 -326h96l133 361q9 24 31 35t45 2q22 -8 33 -31.5t2 -46.5l-148 -396q-10 -43 -55 -43h-211q-9 0 -15 3q-25 6 -38 25.5t-9 45.5zM31 735q0 93 62 155t155 62t154 -62t61 -155q0 -90 -61 -152.5 t-154 -62.5t-155 62t-62 153zM150 735q0 -42 27.5 -68t70.5 -26q44 0 70 26t26 68q0 43 -26 69.5t-70 26.5q-43 0 -70.5 -26.5t-27.5 -69.5z" />
<glyph unicode="?" horiz-adv-x="1044" d="M43 1030q0 208 135 345.5t344 133.5q91 -2 174 -36.5t148 -94t104 -150.5t39 -198q0 -48 -9 -95t-19 -78.5t-36 -79t-38.5 -67.5t-49.5 -75t-49 -72q-14 -22 -35.5 -28.5t-40 1t-33 22.5t-15 37t13.5 44q11 17 47.5 70t51 78t37 70t31.5 86.5t9 86.5q0 153 -97.5 247 t-232.5 99q-153 1 -247.5 -96t-94.5 -250q0 -32 -21.5 -50t-47 -18t-47 18t-21.5 50zM285 193q0 94 63.5 157.5t161.5 63.5q95 0 158 -63.5t63 -157.5q0 -96 -63 -161t-158 -65q-99 0 -162 65t-63 161zM309 1030q0 71 38 124.5t91.5 75t116.5 9.5t109 -61 q57 -61 57.5 -147.5t-47.5 -153.5l-213 -314q-15 -22 -36.5 -28.5t-40 1t-33.5 22.5t-16 37t13 44q1 1 68 98.5t111.5 165.5t52.5 90q22 62 -22 96q-34 26 -71 12q-41 -16 -41 -71q0 -32 -21.5 -50t-47 -18t-47 18t-21.5 50zM403 193q0 -48 28 -75.5t79 -27.5q46 0 74 28 t28 75q0 46 -28 73t-74 27q-50 0 -78.5 -27.5t-28.5 -72.5z" />
<glyph unicode="A" d="M37 86l559 1397q10 27 36.5 38.5t51.5 0.5q27 -8 39 -39l557 -1397q11 -26 0 -52t-37 -38q-27 -9 -53.5 2t-36.5 37l-494 1243l-493 -1243q-12 -26 -38 -37t-52 -2q-25 12 -36.5 38t-2.5 52zM334 34q-11 26 0 52l49 125q9 19 26.5 31t36.5 12h424q23 0 41.5 -14t24.5 -35 l49 -119q9 -27 -1 -52.5t-36 -37.5q-27 -9 -53.5 1.5t-36.5 37.5l-33 80h-331l-35 -80q-9 -26 -34.5 -37t-53.5 -2q-26 12 -37 38zM492 459q0 29 19.5 48t47.5 19h98l-61 152q-9 27 1.5 53t35.5 35q28 10 53.5 0t36.5 -35l100 -246q6 -12 6 -26q0 -29 -21 -49.5t-50 -20.5 h-199q-28 0 -47.5 20.5t-19.5 49.5z" />
<glyph unicode="B" horiz-adv-x="1345" d="M164 45v1376q0 28 20 49t47 21h541q137 0 246.5 -66t169 -175t59.5 -238q0 -157 -84 -279q53 -77 73 -165q13 -56 13 -111q-1 -31 -5 -61q-12 -83 -51 -160t-99 -134.5t-143.5 -92t-176.5 -34.5h-266q-32 0 -50 22t-18 48t18 48t50 22h266q76 0 139.5 29.5t105 76.5 t66 108.5t26.5 123.5v11q1 57 -19 112q-22 61 -66 106q-19 20 -21.5 39t7.5 35.5t26 40.5t32.5 50t28 68.5t11.5 92.5q0 142 -99 243t-239 101h-471v-1307q0 -32 -21.5 -50t-47 -18t-47 18t-21.5 50zM440 596q0 26 18 47t50 21h240q69 0 121 -38q51 -37 73 -90 q14 -35 15 -74q0 -20 -4 -42q-11 -62 -58 -109q-59 -59 -147 -59q-5 0 -23 -0.5t-28 0t-26.5 2t-26.5 6t-21 12t-16 20.5t-5 30q0 37 22.5 52t54 15.5t63.5 1t54.5 16t22.5 52.5q0 31 -19.5 50t-51.5 19h-240q-32 0 -50 21t-18 47zM440 1145.5q0 25.5 18 47t50 21.5h240 q69 0 121 -38q51 -37 73 -91q14 -36 15 -75q0 -20 -4 -42q-11 -62 -58 -108q-15 -14 -29 -24.5t-32 -17t-28.5 -10.5t-33.5 -5.5t-30.5 -2t-35.5 0t-34 0.5q-32 0 -50 21.5t-18 47t18 47t50 21.5q6 0 25 -1t28.5 0t26.5 2.5t26.5 6t20 12t15.5 20.5t5 30q0 30 -19.5 49.5 t-51.5 19.5h-240q-32 0 -50 21.5t-18 47z" />
<glyph unicode="C" horiz-adv-x="1284" d="M98 735v8q0 114 29 222q30 112 93 211.5t153 174.5t217.5 118.5t277.5 43.5q158 0 303 -59q29 -12 37.5 -39t-1 -50.5t-34.5 -36.5t-55 -1q-119 51 -256 51q-181 0 -326 -84.5t-225 -230.5t-80 -324q1 -98 26.5 -190t78 -173t127 -141.5t179 -95.5t226.5 -35 q121 0 250 50q24 9 45.5 3.5t33 -23t15.5 -37t-7 -39.5t-34 -29q-148 -60 -303 -60q-148 0 -275 43t-216.5 116.5t-153 171.5t-94 208.5t-31.5 226.5zM391 739q0 103 32.5 190.5t88 148t130.5 100.5q75 38 157 50q34 5 69 5q50 1 102 -9q89 -16 171 -63q23 -12 31.5 -32.5 t3 -39.5t-19 -35t-35 -19t-44.5 9q-88 49 -186 52h-14q-91 0 -165 -34q-80 -38 -133 -123t-53 -200q0 -161 97 -255t237 -99h12q109 0 205 53q23 11 44.5 7.5t35 -19.5t19 -35t-3 -39.5t-31.5 -32.5q-123 -71 -267 -71h-12q-94 2 -179 36.5t-150 96.5t-103.5 155t-38.5 203z " />
<glyph unicode="D" horiz-adv-x="1505" d="M164 47v1370q0 28 19.5 48t47.5 20h410q164 0 305 -57t239 -156.5t154 -239t56 -299.5q0 -215 -95 -386.5t-267.5 -269t-391.5 -97.5h-137q-28 0 -48 19.5t-20 47.5q0 29 20 49.5t48 20.5h137q181 0 321.5 79t217.5 219t77 318q0 269 -171.5 442t-444.5 173h-340v-1301 q0 -28 -20.5 -47.5t-49.5 -19.5q-28 0 -47.5 19.5t-19.5 47.5zM438 322q0 28 20 47.5t48 19.5h135q150 0 241 97.5t91 246.5q0 148 -91 245t-241 97h-68v-479q0 -30 -19 -50t-48 -20q-28 0 -48 20.5t-20 49.5v547q0 29 20 49t48 20h135q207 0 337 -137t130 -342 q0 -206 -130 -343.5t-337 -137.5h-135q-28 0 -48 20.5t-20 49.5z" />
<glyph unicode="E" horiz-adv-x="1120" d="M164 47v1370q0 28 19.5 48t47.5 20h709q29 0 49.5 -20t20.5 -48q0 -29 -20.5 -49t-49.5 -20h-639v-1231h639q29 0 49.5 -20.5t20.5 -49.5q0 -28 -20.5 -47.5t-49.5 -19.5h-709q-28 0 -47.5 19.5t-19.5 47.5zM436 322v274q0 28 20.5 48t49.5 20h307q29 0 49.5 -20 t20.5 -48q0 -29 -20.5 -49.5t-49.5 -20.5h-240v-135h367q29 0 49.5 -20t20.5 -49q0 -28 -20.5 -48t-49.5 -20h-434q-29 0 -49.5 20t-20.5 48zM436 868v275q0 29 20 48t50 19h434q30 0 50 -19t20 -48q0 -28 -20.5 -48t-49.5 -20h-367v-137h240q29 0 49.5 -20.5t20.5 -49.5 q0 -28 -20.5 -47.5t-49.5 -19.5h-307q-29 0 -49.5 19.5t-20.5 47.5z" />
<glyph unicode="F" horiz-adv-x="1087" d="M164 47v1370q0 28 19 48t48 20h709q29 0 49.5 -20t20.5 -48q0 -29 -20.5 -49t-49.5 -20h-641v-1301q0 -28 -20 -47.5t-48 -19.5q-29 0 -48 19.5t-19 47.5zM436 47v549q0 28 20.5 48t49.5 20h307q28 0 48 -20t20 -48q0 -29 -20 -49.5t-48 -20.5h-240v-479 q0 -28 -19.5 -47.5t-47.5 -19.5q-29 0 -49.5 19.5t-20.5 47.5zM436 868v275q0 29 20 48t50 19h434q30 0 50 -19t20 -48q0 -28 -20.5 -48t-49.5 -20h-367v-137h240q28 0 48 -20.5t20 -49.5q0 -28 -20 -47.5t-48 -19.5h-307q-29 0 -49.5 19.5t-20.5 47.5z" />
<glyph unicode="G" horiz-adv-x="1449" d="M98 719v13q0 136 39 256q41 127 115.5 222t180 163t227.5 101q107 28 229 28h33q141 -5 282 -50q46 -15 54 -54q2 -8 2 -16q0 -28 -22 -48q-19 -17 -43 -17q-15 0 -32 6q-118 38 -236 43q-19 1 -38 1q-96 0 -182 -22q-102 -26 -190.5 -81.5t-151 -134t-97.5 -183.5 q-32 -99 -32 -212v-13q2 -125 43.5 -233t110.5 -183.5t160.5 -126.5t191.5 -68q56 -10 114 -10q47 0 94 6q108 14 205 62v565q0 32 21.5 50t47 18t47 -18t21.5 -50v-606q0 -40 -37 -59q-94 -52 -196 -78.5t-199 -27.5h-5q-95 0 -189 24q-95 23 -178 67.5t-154.5 111.5 t-122.5 149.5t-81 186.5t-32 218zM390 724q-1 5 -1 9q0 86 29 170q30 88 86.5 157.5t150.5 114t211 48.5q16 1 32 1q158 0 286 -55q23 -11 33.5 -31.5t6 -40t-16.5 -37t-33.5 -22.5t-45.5 4q-102 45 -240 45h-18q-96 -4 -170.5 -45t-112.5 -103.5t-55 -137.5q-8 -36 -8 -71 q0 -39 10 -78q18 -73 57.5 -134t114.5 -98q72 -37 163 -37h5v350q0 43 35 60q17 9 35 9l35 -9q35 -17 35 -60v-414q0 -26 -14.5 -42.5t-41 -23t-45 -8t-45.5 -1.5q-113 0 -205 41t-150 108.5t-90 154t-33 176.5z" />
<glyph unicode="H" horiz-adv-x="1425" d="M164 47v1370q0 28 20 48t49 20q28 0 48 -20t20 -48v-1370q0 -28 -20 -47.5t-48 -19.5q-29 0 -49 19.5t-20 47.5zM438 47v549q0 28 20 48t48 20h412q28 0 47.5 -20t19.5 -48v-549q0 -28 -19.5 -47.5t-47.5 -19.5q-29 0 -49.5 19.5t-20.5 47.5v479h-273v-479 q0 -28 -20 -47.5t-49 -19.5q-28 0 -48 19.5t-20 47.5zM438 868v549q0 28 20 48t48 20q29 0 49 -20t20 -48v-479h273v479q0 28 20.5 48t49.5 20q28 0 47.5 -20t19.5 -48v-549q0 -28 -19.5 -47.5t-47.5 -19.5h-412q-28 0 -48 19.5t-20 47.5zM1122 47v1370q0 28 20 48t48 20 q29 0 49.5 -20t20.5 -48v-1370q0 -28 -20.5 -47.5t-49.5 -19.5q-28 0 -48 19.5t-20 47.5z" />
<glyph unicode="I" horiz-adv-x="741" d="M164 47v1370q0 28 20 48t49 20q28 0 48 -20t20 -48v-1370q0 -28 -20 -47.5t-48 -19.5q-29 0 -49 19.5t-20 47.5zM438 47v1370q0 28 20.5 48t49.5 20q28 0 47.5 -20t19.5 -48v-1370q0 -28 -19.5 -47.5t-47.5 -19.5q-29 0 -49.5 19.5t-20.5 47.5z" />
<glyph unicode="J" horiz-adv-x="1038" d="M66 47q0 29 19.5 49.5t47.5 20.5h270h3q154 0 243 97q90 98 90 245v958q0 28 20.5 48t49.5 20q28 0 48 -20t20 -48v-958q0 -203 -129 -341t-345 -138h-270q-28 0 -47.5 19.5t-19.5 47.5zM84 322q0 29 20.5 49t49.5 20h241q30 0 51 19t21 49v958q0 28 20 48t48 20 t47.5 -20t19.5 -48v-958q0 -87 -60 -146t-147 -59h-241q-29 0 -49.5 20t-20.5 48z" />
<glyph unicode="K" horiz-adv-x="1251" d="M164 47v1370q0 28 19.5 48t47.5 20q29 0 49.5 -20t20.5 -48v-1370q0 -28 -20.5 -47.5t-49.5 -19.5q-28 0 -47.5 19.5t-19.5 47.5zM438 47v449q0 34 23 54t52.5 17t47.5 -30l316 -449q15 -24 10 -51.5t-29 -44.5q-23 -15 -50 -11t-44 27l-191 273v-234q0 -28 -19 -47.5 t-48 -19.5q-28 0 -48 19.5t-20 47.5zM438 971v446q0 28 20 48t48 20q29 0 48 -20t19 -48v-233l191 272q18 24 44 29t50 -12t29 -44.5t-10 -50.5l-316 -450q-15 -23 -43 -28.5t-51 11.5q-29 20 -29 60zM609 731q0 22 12 41l477 684q18 24 44 29t50 -12t29 -44.5t-11 -50.5 l-450 -645l450 -645q16 -24 11 -51.5t-29 -44.5q-23 -15 -50 -11t-44 27l-477 684q-12 17 -12 39z" />
<glyph unicode="L" horiz-adv-x="1185" d="M164 47v1370q0 28 20 48t49 20q28 0 48 -20t20 -48v-1300h729q29 0 48.5 -20.5t19.5 -49.5q0 -28 -19.5 -47.5t-48.5 -19.5h-797q-29 0 -49 19.5t-20 47.5zM438 322v1095q0 28 20 48t48 20q29 0 49 -20t20 -48v-1026h455q29 0 48.5 -20t19.5 -49q0 -28 -19.5 -48 t-48.5 -20h-524q-28 0 -48 20t-20 48z" />
<glyph unicode="M" horiz-adv-x="1841" d="M164 49v1389q0 29 20 49t49 20t49.5 -20t20.5 -49v-1389q0 -29 -20.5 -49t-49.5 -20t-49 20t-20 49zM417 1450q4 28 27 45t52.5 12t46.5 -28l375 -543l378 543q17 23 45.5 28t53.5 -12q23 -17 27 -45t-11 -51l-434 -623q-17 -25 -46 -30t-52 14q-12 8 -17 18l-434 621 q-15 23 -11 51zM442 49v866q0 37 29 56q23 17 52 12t46 -29l349 -503l352 501q21 31 57 31q29 0 49.5 -20t20.5 -48v-866q0 -29 -20.5 -49t-49.5 -20t-49.5 20t-20.5 49v645l-280 -403q-17 -23 -46 -28.5t-52 9.5q-13 13 -17 19l-280 403v-645q0 -29 -20.5 -49t-51.5 -20 q-28 0 -48 20t-20 49zM1536 49v1389q0 29 20 49t48 20q31 0 51 -20t20 -49v-1389q0 -29 -20 -49t-51 -20q-28 0 -48 20t-20 49z" />
<glyph unicode="N" horiz-adv-x="1583" d="M164 47v1370q0 28 19.5 47t47.5 19q29 0 48.5 -19t19.5 -47v-1370q0 -28 -19.5 -49t-48.5 -21q-27 0 -47 21t-20 49zM412 1428q5 27 28 42q24 18 52 13t43 -29l471 -674v637q0 27 20.5 46.5t48.5 19.5t48 -19t20 -47v-852q0 -38 -31 -57q-23 -17 -50 -12t-44 28l-594 852 q-17 25 -12 52zM438 47v852q0 38 29 55q22 19 50.5 14t43.5 -30l596 -852q15 -23 10.5 -50t-26.5 -46q-25 -15 -52.5 -10t-44.5 28l-471 674v-635q0 -28 -20 -47.5t-49 -19.5q-28 0 -47 19.5t-19 47.5zM1280 47v1370q0 28 20 47t48 19q29 0 49 -19t20 -47v-1370 q0 -28 -20 -49t-49 -21q-28 0 -48 21t-20 49z" />
<glyph unicode="O" horiz-adv-x="1763" d="M114 734.5q0 146.5 50.5 287t143.5 250.5t245 177t340 67q257 0 469 -150q211 -155 287 -397q8 -28 -5 -53.5t-40 -32.5q-28 -9 -54.5 4t-33.5 41q-66 200 -238 325q-172 123 -385 123q-124 0 -230 -36t-180.5 -97.5t-127.5 -143.5t-77.5 -174.5t-24.5 -189.5 t24.5 -189.5t77.5 -174.5t127.5 -143.5t180.5 -97.5t230 -36q218 0 385 123q172 122 238 326q7 27 33.5 40t54.5 5q27 -7 40 -33.5t5 -54.5q-38 -119 -112.5 -221.5t-174.5 -174.5q-214 -151 -469 -151q-188 0 -340 67t-245 177t-143.5 250.5t-50.5 287zM463.5 540 q7.5 27 32.5 42q26 14 53.5 6.5t40.5 -33.5q54 -87 131 -129q77 -49 172 -49q152 0 248 104q104 99 104 254q0 153 -104 252q-102 105 -248 105q-93 0 -172 -48q-80 -47 -131 -129q-13 -26 -40.5 -34t-53.5 6q-25 14 -32.5 42t7.5 54q66 117 178 182q114 66 244 66 q204 0 350 -146q141 -148 141 -350t-141 -350q-144 -147 -350 -147q-127 0 -244 65q-113 69 -178 184q-15 26 -7.5 53z" />
<glyph unicode="P" horiz-adv-x="1304" d="M164 49v1364q0 30 19.5 50t47.5 20h541q112 0 203 -41t146.5 -108.5t85.5 -153.5t30 -175.5t-30.5 -175.5t-86 -153.5t-146 -108.5t-202.5 -41h-197v-477q0 -32 -21.5 -50t-48 -18t-48 18t-21.5 50v547q0 28 21 48t49 20h266q80 0 144 29.5t103.5 77.5t61 109.5 t21.5 125.5t-21.5 125.5t-61 109.5t-103.5 77.5t-144 29.5h-471v-1299q0 -32 -21.5 -50t-47 -18t-47 18t-21.5 50zM438 1141.5q0 25.5 18 47t50 21.5h242q56 0 100.5 -22.5t67.5 -58.5q24 -36 34 -80q5 -22 5 -44q1 -21 -5 -43q-10 -44 -33.5 -80t-68 -58.5t-100.5 -22.5 q-5 0 -28.5 -0.5t-34 -0.5t-29.5 3.5t-28.5 10.5t-17.5 20.5t-8 33.5t8 34t17.5 21t28.5 10.5t30 3.5t33.5 -0.5t28.5 -0.5q44 0 62 34q9 17 10 34q0 16 -10 34q-18 34 -62 35h-242q-32 0 -50 21.5t-18 47z" />
<glyph unicode="Q" horiz-adv-x="1757" d="M111 731q0 143 49.5 280.5t141 245t240 173t332.5 65.5q155 0 293 -56.5t235.5 -149.5t160 -218.5t79.5 -258.5q5 -41 5 -84q0 -93 -25 -190q-37 -142 -127 -262l137 -198q14 -22 13.5 -44t-15 -37.5t-33 -23.5t-40.5 -1.5t-37 28.5l-168 238q-14 20 -13.5 44.5 t15.5 43.5q85 97 123 215q31 96 31 189q0 21 -2 42q-8 112 -57.5 219t-130 187.5t-196.5 129t-248 48.5q-199 0 -345 -92.5t-211 -231.5q-67 -139 -67 -302q0 -160 65 -298q66 -138 212.5 -230.5t345.5 -92.5q82 0 153.5 18.5t104.5 35.5t62 17h2q29 -1 49 -33 q3 -4 17.5 -23t21 -28.5t15.5 -28t9 -30.5t-6.5 -27t-23.5 -26q-18 -14 -35 -16t-31 7.5t-24.5 20.5t-22.5 29q-152 -58 -291 -58q-184 0 -332.5 65.5t-240 173t-141 245t-49.5 280.5zM401 731.5q0 73.5 18.5 143.5t57.5 132t94 109t133 74t170 27q89 0 170 -31.5t141 -84 t101.5 -124.5t57.5 -151q9 -44 9 -92q0 -35 -5 -72q-12 -86 -54 -164q-19 -34 -57 -36h-4q-35 0 -57 30l-91 131q-14 21 -13.5 42.5t15.5 37t34 23.5t40.5 1.5t36.5 -27.5l14 -18q3 25 3 49q0 74 -29 143q-40 91 -123.5 148t-188.5 57q-176 0 -268 -128q-67 -92 -67 -212 q0 -19 2 -38q11 -143 104 -233q89 -85 220 -85q22 0 46 2l-163 238q-14 21 -13.5 42.5t15.5 37t33.5 23.5t40 1.5t36.5 -27.5l230 -331q6 -14 6 -27q0 -20 -13 -36q-21 -26 -63 -38t-79 -17t-67 -5q-92 0 -170 27t-133 74t-94 109t-57.5 132t-18.5 143.5z" />
<glyph unicode="R" horiz-adv-x="1277" d="M164 47v1370q0 28 20.5 48t48.5 20h539q102 0 190.5 -39.5t149 -104.5t96 -151t38.5 -176v-14q0 -82 -32 -166q-34 -92 -106 -166q-96 -96 -215 -125l317 -455q13 -20 13 -39q0 -15 -8 -31q-19 -34 -53 -38q-3 0 -7 -1q-30 0 -55 29l-379 543q-17 24 -17 46q0 15 8 31 q19 36 60 36q87 0 160 40t114.5 105t57.5 141q6 30 6 61q0 47 -14 96q-24 80 -86 142q-99 99 -238 99h-471v-1301q0 -32 -21.5 -50t-47 -18t-47 18t-21.5 50zM438 47v447q0 35 23 55t53 16.5t49 -28.5l314 -449q14 -22 13 -44t-15.5 -37.5t-33 -23.5t-40.5 -2t-37 27 l-189 273v-234q0 -32 -21.5 -50t-47 -18t-47 18t-21.5 50zM438 1143.5q0 25.5 18 47t50 21.5h244q90 0 148 -63t58 -145q0 -86 -60.5 -144.5t-145.5 -58.5h-68q-50 3 -72 37q-11 17 -11 34q1 16 11 32q20 32 72 32h23.5h25.5t22.5 1t22 4t17.5 8t15.5 12.5t8.5 18.5t4 26 q0 30 -20.5 49.5t-50.5 19.5h-244q-32 0 -50 21.5t-18 47z" />
<glyph unicode="S" horiz-adv-x="1159" d="M99.5 150q5.5 19 19 35.5t35.5 20.5t45 -7q93 -51 197 -75q79 -19 155 -19q23 1 45 3q96 8 174 43.5t125 113.5t47 188q0 67 -28 122.5t-71 91.5t-99 67.5t-106 51t-98.5 42t-70.5 40.5q-68 53 -75 140q-1 9 -1 17q0 82 62 136q65 55 171 55q64 0 144 -20q62 -15 131 -43 q38 -16 41 -54v-7q0 -34 -26 -56q-17 -15 -38 -14q-14 0 -30 6q-134 54 -216 54q-42 0 -71 -14q-35 -16 -35 -46q0 -6 2 -13q5 -21 25 -36q15 -11 65 -32t105 -43.5t120 -63.5t115.5 -89.5t84.5 -125t34 -166.5q0 -110 -37.5 -200.5t-104 -149.5t-156.5 -95 q-89 -36 -195 -38h-12q-100 0 -210 24q-116 23 -229 84q-22 12 -30.5 32.5t-3 39.5zM113 1010v6q1 83 31 165q32 85 88.5 151.5t143.5 110t189 48.5q25 1 49 1q66 0 127 -10q84 -14 191 -50q24 -8 35.5 -27.5t9 -39.5t-13.5 -38.5t-32 -25t-46 1.5q-158 56 -279 56 q-166 0 -262 -106q-57 -59 -81 -141q-13 -43 -13 -88q0 -40 10 -81q22 -87 92 -148q47 -42 112.5 -75t118.5 -53t102.5 -45t79.5 -66.5t34 -102.5v-10q1 -77 -57 -133q-62 -58 -148 -64q-18 -1 -37 -1q-91 1 -186 25q-115 30 -211 99q-21 15 -26.5 36t3 39.5t23.5 32.5 t37 15t43 -13q76 -55 180 -82q69 -18 124 -18q28 1 52 5q67 12 66 55v7q-2 27 -25.5 46t-65.5 35t-89 33.5t-108.5 52t-113.5 79.5q-72 63 -109 147.5t-38 170.5zM582 381z" />
<glyph unicode="T" horiz-adv-x="1189" d="M41 1141q0 29 20.5 49t49.5 20h340q29 0 49 -20t20 -49v-1092q0 -29 -20 -49t-49 -20q-28 0 -49 20t-21 49v1026h-270q-29 0 -49.5 19t-20.5 47zM41 1415q0 29 20.5 48.5t49.5 19.5h956q28 0 47 -19.5t19 -48.5q0 -28 -19 -47.5t-47 -19.5h-956q-29 0 -49.5 19.5 t-20.5 47.5zM655 49v1092q0 29 20 49t48 20h344q28 0 47 -20t19 -49q0 -28 -19 -47t-47 -19h-274v-1026q0 -29 -20.5 -49t-49.5 -20q-28 0 -48 20t-20 49z" />
<glyph unicode="U" horiz-adv-x="1466" d="M156 526v893q0 29 19.5 49.5t47.5 20.5q29 0 49.5 -20.5t20.5 -49.5v-893q0 -104 37.5 -187.5t99.5 -135t141 -79.5t161 -28t161 28t141 79.5t99.5 135t37.5 187.5v893q0 29 19.5 49.5t48.5 20.5q28 0 48 -20.5t20 -49.5v-893q0 -136 -49.5 -246t-130.5 -177.5 t-184.5 -104t-211 -36.5t-211 37t-184.5 104.5t-130.5 177t-49.5 245.5zM436 543v876q0 29 20 49.5t48 20.5q29 0 49 -20.5t20 -49.5v-876q0 -45 17.5 -80t45.5 -53t62 -26q17 -4 34 -5l34 5q34 8 62 26t45.5 53t17.5 80v876q0 30 20 50t50 20q28 0 47.5 -20.5t19.5 -49.5 v-876q0 -72 -25.5 -130.5t-67 -94.5t-94.5 -55.5t-109 -19.5t-109 19.5t-94.5 55.5t-67 94.5t-25.5 130.5z" />
<glyph unicode="V" horiz-adv-x="1333" d="M18 1391q-9 28 1.5 53t37.5 37q27 9 52.5 -2t35.5 -37l523 -1278l520 1278q10 26 36.5 37t51.5 2q26 -12 36.5 -37t0.5 -53l-584 -1432q-19 -43 -63.5 -43t-63.5 43zM329 1444q10 25 36 37q28 9 54 -2t36 -37l213 -518l211 518q9 26 35 37t53 2q26 -12 37 -37t2 -53 l-277 -674q-17 -41 -62.5 -41t-64.5 41l-272 674q-11 28 -1 53z" />
<glyph unicode="W" horiz-adv-x="1875" d="M16 1399q-9 26 2.5 51.5t36.5 36.5q27 11 53 0t35 -37l521 -1276l208 514q20 45 64 46h2q42 0 63 -46l211 -514l519 1276q10 26 37 37t53 0q25 -11 35.5 -36.5t-1.5 -51.5l-581 -1430q-19 -42 -63.5 -42t-63.5 42l-211 518l-211 -518q-17 -43 -61 -43h-2q-46 0 -62 45z M326 1399q-10 26 1.5 51.5t37.5 36.5t52 0t36 -37l211 -518l210 518q9 26 35.5 37t53.5 0q21 -7 38 -37l211 -518l211 518q9 26 35 37t53 0q25 -11 36 -36.5t1 -51.5l-274 -672q-11 -30 -37 -39q-27 -9 -52.5 1.5t-37.5 37.5l-211 516l-211 -516q-11 -30 -35 -39 q-27 -9 -53.5 1.5t-36.5 37.5z" />
<glyph unicode="X" horiz-adv-x="1316" d="M15 26.5q-2 21.5 10 43.5l413 714l-362 625q-17 30 -6 53.5t31.5 37.5t48 9t43.5 -32l378 -660q12 -17 12 -35q0 -16 -10 -32l-432 -748q-13 -22 -34 -30t-40 -1.5t-34.5 20.5t-17.5 35.5zM326 6.5q-11 23.5 6 54.5l268 459q19 34 57.5 34t57.5 -34l268 -459 q17 -31 6 -54.5t-31.5 -37.5t-48 -8.5t-43.5 33.5l-207 358l-208 -358q-17 -28 -44.5 -33.5t-48.5 8.5t-32 37.5zM376.5 1451.5q2.5 21.5 18 35.5t34.5 20.5t39.5 -2t33.5 -30.5l157 -271l156 271q12 22 32.5 30.5t39.5 2t34.5 -20.5t18 -35.5t-9.5 -44.5l-215 -371 q-19 -32 -57.5 -32t-57.5 32l-215 371q-11 23 -8.5 44.5zM743 748q-10 17 -10.5 34.5t10.5 34.5l379 660q13 22 34 29.5t39.5 1t34.5 -20t18.5 -35t-9.5 -43.5l-362 -625l415 -714q11 -22 8.5 -43.5t-18 -35.5t-34 -20.5t-39 1.5t-33.5 30z" />
<glyph unicode="Y" horiz-adv-x="1382" d="M15 1456.5q6 27.5 30 42.5q23 16 51 10t43 -32l475 -760q13 -23 13 -41v-649q0 -29 -20 -49.5t-48 -20.5q-29 0 -49.5 20.5t-20.5 49.5v630l-466 748q-14 24 -8 51.5zM348 1458.5q7 27.5 33 40.5q23 15 51 9t41 -31l221 -375l221 375q15 25 43.5 31t51.5 -9 q24 -13 31 -40.5t-7 -53.5l-278 -467q-23 -38 -60 -38h-2q-37 1 -61 40l-277 465q-15 26 -8 53.5zM762 27v647q0 19 10 39l479 764q15 26 43 32t52 -10q23 -15 29 -42t-9 -52l-465 -748v-630q0 -29 -21 -49.5t-49 -20.5t-48.5 20.5t-20.5 49.5z" />
<glyph unicode="Z" horiz-adv-x="1189" d="M51 78l408 997h-285q-32 0 -50 21.5t-18 47t18 47t50 21.5h381q43 0 63 -31q11 -17 11 -36q0 -16 -8 -35l-406 -991h838q32 0 50 -21.5t18 -48t-18 -48t-50 -21.5h-938q-37 0 -58 31q-12 18 -12 38q0 14 6 29zM106 1417.5q0 25.5 18 46.5t50 21h793q37 0 57 -30 q12 -17 12 -37q0 -14 -6 -29l-407 -998h430q32 0 50 -21.5t18 -47t-18 -47t-50 -21.5h-539q-36 0 -54 29q-9 15 -9 31t8 34l407 1002h-692q-32 0 -50 21t-18 46.5z" />
<glyph unicode="`" horiz-adv-x="768" d="M240.5 1418.5q0.5 26.5 17.5 47.5q21 18 47.5 17t46.5 -21l205 -221q18 -18 17 -45t-21 -45q-21 -20 -46 -18.5t-46 22.5l-207 217q-14 20 -13.5 46.5z" />
<glyph unicode="a" d="M37 86l559 1397q10 27 36.5 38.5t51.5 0.5q27 -8 39 -39l557 -1397q11 -26 0 -52t-37 -38q-27 -9 -53.5 2t-36.5 37l-494 1243l-493 -1243q-12 -26 -38 -37t-52 -2q-25 12 -36.5 38t-2.5 52zM334 34q-11 26 0 52l49 125q9 19 26.5 31t36.5 12h424q23 0 41.5 -14t24.5 -35 l49 -119q9 -27 -1 -52.5t-36 -37.5q-27 -9 -53.5 1.5t-36.5 37.5l-33 80h-331l-35 -80q-9 -26 -34.5 -37t-53.5 -2q-26 12 -37 38zM492 459q0 29 19.5 48t47.5 19h98l-61 152q-9 27 1.5 53t35.5 35q28 10 53.5 0t36.5 -35l100 -246q6 -12 6 -26q0 -29 -21 -49.5t-50 -20.5 h-199q-28 0 -47.5 20.5t-19.5 49.5z" />
<glyph unicode="b" horiz-adv-x="1345" d="M164 45v1376q0 28 20 49t47 21h541q137 0 246.5 -66t169 -175t59.5 -238q0 -157 -84 -279q53 -77 73 -165q13 -56 13 -111q-1 -31 -5 -61q-12 -83 -51 -160t-99 -134.5t-143.5 -92t-176.5 -34.5h-266q-32 0 -50 22t-18 48t18 48t50 22h266q76 0 139.5 29.5t105 76.5 t66 108.5t26.5 123.5v11q1 57 -19 112q-22 61 -66 106q-19 20 -21.5 39t7.5 35.5t26 40.5t32.5 50t28 68.5t11.5 92.5q0 142 -99 243t-239 101h-471v-1307q0 -32 -21.5 -50t-47 -18t-47 18t-21.5 50zM440 596q0 26 18 47t50 21h240q69 0 121 -38q51 -37 73 -90 q14 -35 15 -74q0 -20 -4 -42q-11 -62 -58 -109q-59 -59 -147 -59q-5 0 -23 -0.5t-28 0t-26.5 2t-26.5 6t-21 12t-16 20.5t-5 30q0 37 22.5 52t54 15.5t63.5 1t54.5 16t22.5 52.5q0 31 -19.5 50t-51.5 19h-240q-32 0 -50 21t-18 47zM440 1145.5q0 25.5 18 47t50 21.5h240 q69 0 121 -38q51 -37 73 -91q14 -36 15 -75q0 -20 -4 -42q-11 -62 -58 -108q-15 -14 -29 -24.5t-32 -17t-28.5 -10.5t-33.5 -5.5t-30.5 -2t-35.5 0t-34 0.5q-32 0 -50 21.5t-18 47t18 47t50 21.5q6 0 25 -1t28.5 0t26.5 2.5t26.5 6t20 12t15.5 20.5t5 30q0 30 -19.5 49.5 t-51.5 19.5h-240q-32 0 -50 21.5t-18 47z" />
<glyph unicode="c" horiz-adv-x="1284" d="M98 735v8q0 114 29 222q30 112 93 211.5t153 174.5t217.5 118.5t277.5 43.5q158 0 303 -59q29 -12 37.5 -39t-1 -50.5t-34.5 -36.5t-55 -1q-119 51 -256 51q-181 0 -326 -84.5t-225 -230.5t-80 -324q1 -98 26.5 -190t78 -173t127 -141.5t179 -95.5t226.5 -35 q121 0 250 50q24 9 45.5 3.5t33 -23t15.5 -37t-7 -39.5t-34 -29q-148 -60 -303 -60q-148 0 -275 43t-216.5 116.5t-153 171.5t-94 208.5t-31.5 226.5zM391 739q0 103 32.5 190.5t88 148t130.5 100.5q75 38 157 50q34 5 69 5q50 1 102 -9q89 -16 171 -63q23 -12 31.5 -32.5 t3 -39.5t-19 -35t-35 -19t-44.5 9q-88 49 -186 52h-14q-91 0 -165 -34q-80 -38 -133 -123t-53 -200q0 -161 97 -255t237 -99h12q109 0 205 53q23 11 44.5 7.5t35 -19.5t19 -35t-3 -39.5t-31.5 -32.5q-123 -71 -267 -71h-12q-94 2 -179 36.5t-150 96.5t-103.5 155t-38.5 203z " />
<glyph unicode="d" horiz-adv-x="1505" d="M164 47v1370q0 28 19.5 48t47.5 20h410q164 0 305 -57t239 -156.5t154 -239t56 -299.5q0 -215 -95 -386.5t-267.5 -269t-391.5 -97.5h-137q-28 0 -48 19.5t-20 47.5q0 29 20 49.5t48 20.5h137q181 0 321.5 79t217.5 219t77 318q0 269 -171.5 442t-444.5 173h-340v-1301 q0 -28 -20.5 -47.5t-49.5 -19.5q-28 0 -47.5 19.5t-19.5 47.5zM438 322q0 28 20 47.5t48 19.5h135q150 0 241 97.5t91 246.5q0 148 -91 245t-241 97h-68v-479q0 -30 -19 -50t-48 -20q-28 0 -48 20.5t-20 49.5v547q0 29 20 49t48 20h135q207 0 337 -137t130 -342 q0 -206 -130 -343.5t-337 -137.5h-135q-28 0 -48 20.5t-20 49.5z" />
<glyph unicode="e" horiz-adv-x="1120" d="M164 47v1370q0 28 19.5 48t47.5 20h709q29 0 49.5 -20t20.5 -48q0 -29 -20.5 -49t-49.5 -20h-639v-1231h639q29 0 49.5 -20.5t20.5 -49.5q0 -28 -20.5 -47.5t-49.5 -19.5h-709q-28 0 -47.5 19.5t-19.5 47.5zM436 322v274q0 28 20.5 48t49.5 20h307q29 0 49.5 -20 t20.5 -48q0 -29 -20.5 -49.5t-49.5 -20.5h-240v-135h367q29 0 49.5 -20t20.5 -49q0 -28 -20.5 -48t-49.5 -20h-434q-29 0 -49.5 20t-20.5 48zM436 868v275q0 29 20 48t50 19h434q30 0 50 -19t20 -48q0 -28 -20.5 -48t-49.5 -20h-367v-137h240q29 0 49.5 -20.5t20.5 -49.5 q0 -28 -20.5 -47.5t-49.5 -19.5h-307q-29 0 -49.5 19.5t-20.5 47.5z" />
<glyph unicode="f" horiz-adv-x="1087" d="M164 47v1370q0 28 19 48t48 20h709q29 0 49.5 -20t20.5 -48q0 -29 -20.5 -49t-49.5 -20h-641v-1301q0 -28 -20 -47.5t-48 -19.5q-29 0 -48 19.5t-19 47.5zM436 47v549q0 28 20.5 48t49.5 20h307q28 0 48 -20t20 -48q0 -29 -20 -49.5t-48 -20.5h-240v-479 q0 -28 -19.5 -47.5t-47.5 -19.5q-29 0 -49.5 19.5t-20.5 47.5zM436 868v275q0 29 20 48t50 19h434q30 0 50 -19t20 -48q0 -28 -20.5 -48t-49.5 -20h-367v-137h240q28 0 48 -20.5t20 -49.5q0 -28 -20 -47.5t-48 -19.5h-307q-29 0 -49.5 19.5t-20.5 47.5z" />
<glyph unicode="g" horiz-adv-x="1449" d="M98 719v13q0 136 39 256q41 127 115.5 222t180 163t227.5 101q107 28 229 28h33q141 -5 282 -50q46 -15 54 -54q2 -8 2 -16q0 -28 -22 -48q-19 -17 -43 -17q-15 0 -32 6q-118 38 -236 43q-19 1 -38 1q-96 0 -182 -22q-102 -26 -190.5 -81.5t-151 -134t-97.5 -183.5 q-32 -99 -32 -212v-13q2 -125 43.5 -233t110.5 -183.5t160.5 -126.5t191.5 -68q56 -10 114 -10q47 0 94 6q108 14 205 62v565q0 32 21.5 50t47 18t47 -18t21.5 -50v-606q0 -40 -37 -59q-94 -52 -196 -78.5t-199 -27.5h-5q-95 0 -189 24q-95 23 -178 67.5t-154.5 111.5 t-122.5 149.5t-81 186.5t-32 218zM390 724q-1 5 -1 9q0 86 29 170q30 88 86.5 157.5t150.5 114t211 48.5q16 1 32 1q158 0 286 -55q23 -11 33.5 -31.5t6 -40t-16.5 -37t-33.5 -22.5t-45.5 4q-102 45 -240 45h-18q-96 -4 -170.5 -45t-112.5 -103.5t-55 -137.5q-8 -36 -8 -71 q0 -39 10 -78q18 -73 57.5 -134t114.5 -98q72 -37 163 -37h5v350q0 43 35 60q17 9 35 9l35 -9q35 -17 35 -60v-414q0 -26 -14.5 -42.5t-41 -23t-45 -8t-45.5 -1.5q-113 0 -205 41t-150 108.5t-90 154t-33 176.5z" />
<glyph unicode="h" horiz-adv-x="1425" d="M164 47v1370q0 28 20 48t49 20q28 0 48 -20t20 -48v-1370q0 -28 -20 -47.5t-48 -19.5q-29 0 -49 19.5t-20 47.5zM438 47v549q0 28 20 48t48 20h412q28 0 47.5 -20t19.5 -48v-549q0 -28 -19.5 -47.5t-47.5 -19.5q-29 0 -49.5 19.5t-20.5 47.5v479h-273v-479 q0 -28 -20 -47.5t-49 -19.5q-28 0 -48 19.5t-20 47.5zM438 868v549q0 28 20 48t48 20q29 0 49 -20t20 -48v-479h273v479q0 28 20.5 48t49.5 20q28 0 47.5 -20t19.5 -48v-549q0 -28 -19.5 -47.5t-47.5 -19.5h-412q-28 0 -48 19.5t-20 47.5zM1122 47v1370q0 28 20 48t48 20 q29 0 49.5 -20t20.5 -48v-1370q0 -28 -20.5 -47.5t-49.5 -19.5q-28 0 -48 19.5t-20 47.5z" />
<glyph unicode="i" horiz-adv-x="741" d="M164 47v1370q0 28 20 48t49 20q28 0 48 -20t20 -48v-1370q0 -28 -20 -47.5t-48 -19.5q-29 0 -49 19.5t-20 47.5zM438 47v1370q0 28 20.5 48t49.5 20q28 0 47.5 -20t19.5 -48v-1370q0 -28 -19.5 -47.5t-47.5 -19.5q-29 0 -49.5 19.5t-20.5 47.5z" />
<glyph unicode="j" horiz-adv-x="1038" d="M66 47q0 29 19.5 49.5t47.5 20.5h270h3q154 0 243 97q90 98 90 245v958q0 28 20.5 48t49.5 20q28 0 48 -20t20 -48v-958q0 -203 -129 -341t-345 -138h-270q-28 0 -47.5 19.5t-19.5 47.5zM84 322q0 29 20.5 49t49.5 20h241q30 0 51 19t21 49v958q0 28 20 48t48 20 t47.5 -20t19.5 -48v-958q0 -87 -60 -146t-147 -59h-241q-29 0 -49.5 20t-20.5 48z" />
<glyph unicode="k" horiz-adv-x="1251" d="M164 47v1370q0 28 19.5 48t47.5 20q29 0 49.5 -20t20.5 -48v-1370q0 -28 -20.5 -47.5t-49.5 -19.5q-28 0 -47.5 19.5t-19.5 47.5zM438 47v449q0 34 23 54t52.5 17t47.5 -30l316 -449q15 -24 10 -51.5t-29 -44.5q-23 -15 -50 -11t-44 27l-191 273v-234q0 -28 -19 -47.5 t-48 -19.5q-28 0 -48 19.5t-20 47.5zM438 971v446q0 28 20 48t48 20q29 0 48 -20t19 -48v-233l191 272q18 24 44 29t50 -12t29 -44.5t-10 -50.5l-316 -450q-15 -23 -43 -28.5t-51 11.5q-29 20 -29 60zM609 731q0 22 12 41l477 684q18 24 44 29t50 -12t29 -44.5t-11 -50.5 l-450 -645l450 -645q16 -24 11 -51.5t-29 -44.5q-23 -15 -50 -11t-44 27l-477 684q-12 17 -12 39z" />
<glyph unicode="l" horiz-adv-x="1185" d="M164 47v1370q0 28 20 48t49 20q28 0 48 -20t20 -48v-1300h729q29 0 48.5 -20.5t19.5 -49.5q0 -28 -19.5 -47.5t-48.5 -19.5h-797q-29 0 -49 19.5t-20 47.5zM438 322v1095q0 28 20 48t48 20q29 0 49 -20t20 -48v-1026h455q29 0 48.5 -20t19.5 -49q0 -28 -19.5 -48 t-48.5 -20h-524q-28 0 -48 20t-20 48z" />
<glyph unicode="m" horiz-adv-x="1841" d="M164 49v1389q0 29 20 49t49 20t49.5 -20t20.5 -49v-1389q0 -29 -20.5 -49t-49.5 -20t-49 20t-20 49zM417 1450q4 28 27 45t52.5 12t46.5 -28l375 -543l378 543q17 23 45.5 28t53.5 -12q23 -17 27 -45t-11 -51l-434 -623q-17 -25 -46 -30t-52 14q-12 8 -17 18l-434 621 q-15 23 -11 51zM442 49v866q0 37 29 56q23 17 52 12t46 -29l349 -503l352 501q21 31 57 31q29 0 49.5 -20t20.5 -48v-866q0 -29 -20.5 -49t-49.5 -20t-49.5 20t-20.5 49v645l-280 -403q-17 -23 -46 -28.5t-52 9.5q-13 13 -17 19l-280 403v-645q0 -29 -20.5 -49t-51.5 -20 q-28 0 -48 20t-20 49zM1536 49v1389q0 29 20 49t48 20q31 0 51 -20t20 -49v-1389q0 -29 -20 -49t-51 -20q-28 0 -48 20t-20 49z" />
<glyph unicode="n" horiz-adv-x="1583" d="M164 47v1370q0 28 19.5 47t47.5 19q29 0 48.5 -19t19.5 -47v-1370q0 -28 -19.5 -49t-48.5 -21q-27 0 -47 21t-20 49zM412 1428q5 27 28 42q24 18 52 13t43 -29l471 -674v637q0 27 20.5 46.5t48.5 19.5t48 -19t20 -47v-852q0 -38 -31 -57q-23 -17 -50 -12t-44 28l-594 852 q-17 25 -12 52zM438 47v852q0 38 29 55q22 19 50.5 14t43.5 -30l596 -852q15 -23 10.5 -50t-26.5 -46q-25 -15 -52.5 -10t-44.5 28l-471 674v-635q0 -28 -20 -47.5t-49 -19.5q-28 0 -47 19.5t-19 47.5zM1280 47v1370q0 28 20 47t48 19q29 0 49 -19t20 -47v-1370 q0 -28 -20 -49t-49 -21q-28 0 -48 21t-20 49z" />
<glyph unicode="o" horiz-adv-x="1763" d="M114 734.5q0 146.5 50.5 287t143.5 250.5t245 177t340 67q257 0 469 -150q211 -155 287 -397q8 -28 -5 -53.5t-40 -32.5q-28 -9 -54.5 4t-33.5 41q-66 200 -238 325q-172 123 -385 123q-124 0 -230 -36t-180.5 -97.5t-127.5 -143.5t-77.5 -174.5t-24.5 -189.5 t24.5 -189.5t77.5 -174.5t127.5 -143.5t180.5 -97.5t230 -36q218 0 385 123q172 122 238 326q7 27 33.5 40t54.5 5q27 -7 40 -33.5t5 -54.5q-38 -119 -112.5 -221.5t-174.5 -174.5q-214 -151 -469 -151q-188 0 -340 67t-245 177t-143.5 250.5t-50.5 287zM463.5 540 q7.5 27 32.5 42q26 14 53.5 6.5t40.5 -33.5q54 -87 131 -129q77 -49 172 -49q152 0 248 104q104 99 104 254q0 153 -104 252q-102 105 -248 105q-93 0 -172 -48q-80 -47 -131 -129q-13 -26 -40.5 -34t-53.5 6q-25 14 -32.5 42t7.5 54q66 117 178 182q114 66 244 66 q204 0 350 -146q141 -148 141 -350t-141 -350q-144 -147 -350 -147q-127 0 -244 65q-113 69 -178 184q-15 26 -7.5 53z" />
<glyph unicode="p" horiz-adv-x="1304" d="M164 49v1364q0 30 19.5 50t47.5 20h541q112 0 203 -41t146.5 -108.5t85.5 -153.5t30 -175.5t-30.5 -175.5t-86 -153.5t-146 -108.5t-202.5 -41h-197v-477q0 -32 -21.5 -50t-48 -18t-48 18t-21.5 50v547q0 28 21 48t49 20h266q80 0 144 29.5t103.5 77.5t61 109.5 t21.5 125.5t-21.5 125.5t-61 109.5t-103.5 77.5t-144 29.5h-471v-1299q0 -32 -21.5 -50t-47 -18t-47 18t-21.5 50zM438 1141.5q0 25.5 18 47t50 21.5h242q56 0 100.5 -22.5t67.5 -58.5t34 -80q5 -22 5 -44t-5 -43q-11 -44 -34 -80t-67.5 -58.5t-100.5 -22.5q-5 0 -28.5 -0.5 t-34 -0.5t-29.5 3.5t-28.5 10.5t-17.5 20.5t-8 33.5t8 34t17.5 21t28.5 10.5t30 3.5t33.5 -0.5t28.5 -0.5q44 0 62 34q10 17 10 34t-10 34q-18 35 -62 35h-242q-32 0 -50 21.5t-18 47z" />
<glyph unicode="q" horiz-adv-x="1757" d="M111 731q0 143 49.5 280.5t141 245t240 173t332.5 65.5q155 0 293 -56.5t235.5 -149.5t160 -218.5t79.5 -258.5q5 -41 5 -84q0 -93 -25 -190q-37 -142 -127 -262l137 -198q14 -22 13.5 -44t-15 -37.5t-33 -23.5t-40.5 -1.5t-37 28.5l-168 238q-14 20 -13.5 44.5 t15.5 43.5q85 97 123 215q31 96 31 189q0 21 -2 42q-8 112 -57.5 219t-130 187.5t-196.5 129t-248 48.5q-199 0 -345 -92.5t-211 -231.5q-67 -139 -67 -302q0 -160 65 -298q66 -138 212.5 -230.5t345.5 -92.5q82 0 153.5 18.5t104.5 35.5t62 17h2q29 -1 49 -33 q3 -4 17.5 -23t21 -28.5t15.5 -28t9 -30.5t-6.5 -27t-23.5 -26q-18 -14 -35 -16t-31 7.5t-24.5 20.5t-22.5 29q-152 -58 -291 -58q-184 0 -332.5 65.5t-240 173t-141 245t-49.5 280.5zM401 731.5q0 73.5 18.5 143.5t57.5 132t94 109t133 74t170 27q89 0 170 -31.5t141 -84 t101.5 -124.5t57.5 -151q9 -44 9 -92q0 -35 -5 -72q-12 -86 -54 -164q-19 -34 -57 -36h-4q-35 0 -57 30l-91 131q-14 21 -13.5 42.5t15.5 37t34 23.5t40.5 1.5t36.5 -27.5l14 -18q3 25 3 49q0 74 -29 143q-40 91 -123.5 148t-188.5 57q-176 0 -268 -128q-67 -92 -67 -212 q0 -19 2 -38q11 -143 104 -233q89 -85 220 -85q22 0 46 2l-163 238q-14 21 -13.5 42.5t15.5 37t33.5 23.5t40 1.5t36.5 -27.5l230 -331q6 -14 6 -27q0 -20 -13 -36q-21 -26 -63 -38t-79 -17t-67 -5q-92 0 -170 27t-133 74t-94 109t-57.5 132t-18.5 143.5z" />
<glyph unicode="r" horiz-adv-x="1277" d="M164 47v1370q0 28 20.5 48t48.5 20h539q102 0 190.5 -39.5t149 -104.5t96 -151t38.5 -176v-14q0 -82 -32 -166q-34 -92 -106 -166q-96 -96 -215 -125l317 -455q13 -20 13 -39q0 -15 -8 -31q-19 -34 -53 -38q-3 0 -7 -1q-30 0 -55 29l-379 543q-17 24 -17 46q0 15 8 31 q19 36 60 36q87 0 160 40t114.5 105t57.5 141q6 30 6 61q0 47 -14 96q-24 80 -86 142q-99 99 -238 99h-471v-1301q0 -32 -21.5 -50t-47 -18t-47 18t-21.5 50zM438 47v447q0 35 23 55t53 16.5t49 -28.5l314 -449q14 -22 13 -44t-15.5 -37.5t-33 -23.5t-40.5 -2t-37 27 l-189 273v-234q0 -32 -21.5 -50t-47 -18t-47 18t-21.5 50zM438 1143.5q0 25.5 18 47t50 21.5h244q90 0 148 -63t58 -145q0 -86 -60.5 -144.5t-145.5 -58.5h-68q-50 3 -72 37q-11 17 -11 34q1 16 11 32q20 32 72 32h23.5h25.5t22.5 1t22 4t17.5 8t15.5 12.5t8.5 18.5t4 26 q0 30 -20.5 49.5t-50.5 19.5h-244q-32 0 -50 21.5t-18 47z" />
<glyph unicode="s" horiz-adv-x="1159" d="M99.5 150q5.5 19 19 35.5t35.5 20.5t45 -7q93 -51 197 -75q79 -19 155 -19q23 1 45 3q96 8 174 43.5t125 113.5t47 188q0 67 -28 122.5t-71 91.5t-99 67.5t-106 51t-98.5 42t-70.5 40.5q-68 53 -75 140q-1 9 -1 17q0 82 62 136q65 55 171 55q64 0 144 -20q62 -15 131 -43 q38 -16 41 -54v-7q0 -34 -26 -56q-17 -15 -38 -14q-14 0 -30 6q-134 54 -216 54q-42 0 -71 -14q-35 -16 -35 -46q0 -6 2 -13q5 -21 25 -36q15 -11 65 -32t105 -43.5t120 -63.5t115.5 -89.5t84.5 -125t34 -166.5q0 -110 -37.5 -200.5t-104 -149.5t-156.5 -95 q-89 -36 -195 -38h-12q-100 0 -210 24q-116 23 -229 84q-22 12 -30.5 32.5t-3 39.5zM113 1010v6q1 83 31 165q32 85 88.5 151.5t143.5 110t189 48.5q25 1 49 1q66 0 127 -10q84 -14 191 -50q24 -8 35.5 -27.5t9 -39.5t-13.5 -38.5t-32 -25t-46 1.5q-158 56 -279 56 q-166 0 -262 -106q-57 -59 -81 -141q-13 -43 -13 -88q0 -40 10 -81q22 -87 92 -148q47 -42 112.5 -75t118.5 -53t102.5 -45t79.5 -66.5t34 -102.5v-10q1 -77 -57 -133q-62 -58 -148 -64q-18 -1 -37 -1q-91 1 -186 25q-115 30 -211 99q-21 15 -26.5 36t3 39.5t23.5 32.5 t37 15t43 -13q76 -55 180 -82q69 -18 124 -18q28 1 52 5q67 12 66 55v7q-2 27 -25.5 46t-65.5 35t-89 33.5t-108.5 52t-113.5 79.5q-72 63 -109 147.5t-38 170.5zM582 381z" />
<glyph unicode="t" horiz-adv-x="1189" d="M41 1141q0 29 20.5 49t49.5 20h340q29 0 49 -20t20 -49v-1092q0 -29 -20 -49t-49 -20q-28 0 -49 20t-21 49v1026h-270q-29 0 -49.5 19t-20.5 47zM41 1415q0 29 20.5 48.5t49.5 19.5h956q28 0 47 -19.5t19 -48.5q0 -28 -19 -47.5t-47 -19.5h-956q-29 0 -49.5 19.5 t-20.5 47.5zM655 49v1092q0 29 20 49t48 20h344q28 0 47 -20t19 -49q0 -28 -19 -47t-47 -19h-274v-1026q0 -29 -20.5 -49t-49.5 -20q-28 0 -48 20t-20 49z" />
<glyph unicode="u" horiz-adv-x="1466" d="M156 526v893q0 29 19.5 49.5t47.5 20.5q29 0 49.5 -20.5t20.5 -49.5v-893q0 -104 37.5 -187.5t99.5 -135t141 -79.5t161 -28t161 28t141 79.5t99.5 135t37.5 187.5v893q0 29 19.5 49.5t48.5 20.5q28 0 48 -20.5t20 -49.5v-893q0 -136 -49.5 -246t-130.5 -177.5 t-184.5 -104t-211 -36.5t-211 37t-184.5 104.5t-130.5 177t-49.5 245.5zM436 543v876q0 29 20 49.5t48 20.5q29 0 49 -20.5t20 -49.5v-876q0 -45 17.5 -80t45.5 -53t62 -26q17 -4 34 -5l34 5q34 8 62 26t45.5 53t17.5 80v876q0 30 20 50t50 20q28 0 47.5 -20.5t19.5 -49.5 v-876q0 -72 -25.5 -130.5t-67 -94.5t-94.5 -55.5t-109 -19.5t-109 19.5t-94.5 55.5t-67 94.5t-25.5 130.5z" />
<glyph unicode="v" horiz-adv-x="1333" d="M18 1391q-9 28 1.5 53t37.5 37q27 9 52.5 -2t35.5 -37l523 -1278l520 1278q10 26 36.5 37t51.5 2q26 -12 36.5 -37t0.5 -53l-584 -1432q-19 -43 -63.5 -43t-63.5 43zM329 1444q10 25 36 37q28 9 54 -2t36 -37l213 -518l211 518q9 26 35 37t53 2q26 -12 37 -37t2 -53 l-277 -674q-17 -41 -62.5 -41t-64.5 41l-272 674q-11 28 -1 53z" />
<glyph unicode="w" horiz-adv-x="1875" d="M16 1399q-9 26 2.5 51.5t36.5 36.5q27 11 53 0t35 -37l521 -1276l208 514q20 45 64 46h2q42 0 63 -46l211 -514l519 1276q10 26 37 37t53 0q25 -11 35.5 -36.5t-1.5 -51.5l-581 -1430q-19 -42 -63.5 -42t-63.5 42l-211 518l-211 -518q-17 -43 -61 -43h-2q-46 0 -62 45z M326 1399q-10 26 1.5 51.5t37.5 36.5t52 0t36 -37l211 -518l210 518q9 26 35.5 37t53.5 0q21 -7 38 -37l211 -518l211 518q9 26 35 37t53 0q25 -11 36 -36.5t1 -51.5l-274 -672q-11 -30 -37 -39q-27 -9 -52.5 1.5t-37.5 37.5l-211 516l-211 -516q-11 -30 -35 -39 q-27 -9 -53.5 1.5t-36.5 37.5z" />
<glyph unicode="x" horiz-adv-x="1316" d="M15 26.5q-2 21.5 10 43.5l413 714l-362 625q-17 30 -6 53.5t31.5 37.5t48 9t43.5 -32l378 -660q12 -17 12 -35q0 -16 -10 -32l-432 -748q-13 -22 -34 -30t-40 -1.5t-34.5 20.5t-17.5 35.5zM326 6.5q-11 23.5 6 54.5l268 459q19 34 57.5 34t57.5 -34l268 -459 q17 -31 6 -54.5t-31.5 -37.5t-48 -8.5t-43.5 33.5l-207 358l-208 -358q-17 -28 -44.5 -33.5t-48.5 8.5t-32 37.5zM376.5 1451.5q2.5 21.5 18 35.5t34.5 20.5t39.5 -2t33.5 -30.5l157 -271l156 271q12 22 32.5 30.5t39.5 2t34.5 -20.5t18 -35.5t-9.5 -44.5l-215 -371 q-19 -32 -57.5 -32t-57.5 32l-215 371q-11 23 -8.5 44.5zM743 748q-10 17 -10.5 34.5t10.5 34.5l379 660q13 22 34 29.5t39.5 1t34.5 -20t18.5 -35t-9.5 -43.5l-362 -625l415 -714q11 -22 8.5 -43.5t-18 -35.5t-34 -20.5t-39 1.5t-33.5 30z" />
<glyph unicode="y" horiz-adv-x="1382" d="M15 1456.5q6 27.5 30 42.5q23 16 51 10t43 -32l475 -760q13 -23 13 -41v-649q0 -29 -20 -49.5t-48 -20.5q-29 0 -49.5 20.5t-20.5 49.5v630l-466 748q-14 24 -8 51.5zM348 1458.5q7 27.5 33 40.5q23 15 51 9t41 -31l221 -375l221 375q15 25 43.5 31t51.5 -9 q24 -13 31 -40.5t-7 -53.5l-278 -467q-23 -38 -60 -38h-2q-37 1 -61 40l-277 465q-15 26 -8 53.5zM762 27v647q0 19 10 39l479 764q15 26 43 32t52 -10q23 -15 29 -42t-9 -52l-465 -748v-630q0 -29 -21 -49.5t-49 -20.5t-48.5 20.5t-20.5 49.5z" />
<glyph unicode="z" horiz-adv-x="1189" d="M51 78l408 997h-285q-32 0 -50 21.5t-18 47t18 47t50 21.5h381q43 0 63 -31q11 -17 11 -36q0 -16 -8 -35l-406 -991h838q32 0 50 -21.5t18 -48t-18 -48t-50 -21.5h-938q-37 0 -58 31q-12 18 -12 38q0 14 6 29zM106 1417.5q0 25.5 18 46.5t50 21h793q37 0 57 -30 q12 -17 12 -37q0 -14 -6 -29l-407 -998h430q32 0 50 -21.5t18 -47t-18 -47t-50 -21.5h-539q-36 0 -54 29q-9 15 -9 31t8 34l407 1002h-692q-32 0 -50 21t-18 46.5z" />
<glyph unicode="&#xa1;" horiz-adv-x="694" d="M137 725q-40 91 0 182q25 62 79.5 101t133.5 39q80 0 133 -38.5t80 -101.5q20 -41 20 -90t-20 -92q-58 -141 -213 -141q-80 0 -135 39t-78 102zM143 408q0 27 21 47t49 20q29 0 48.5 -19.5t19.5 -47.5v-822q0 -30 -19.5 -49.5t-48.5 -19.5t-49.5 19.5t-20.5 49.5v822z M262 776q21 -55 88 -55q34 0 57 15.5t31 39.5q18 38 0 82q-17 53 -88 53q-67 0 -88 -55q-15 -42 0 -80zM418 408q0 28 20.5 47.5t48.5 19.5t47 -19.5t19 -47.5v-822q0 -28 -19.5 -48.5t-46.5 -20.5q-28 0 -48.5 20.5t-20.5 48.5v822z" />
<glyph unicode="&#xa5;" horiz-adv-x="1382" d="M15 1456.5q6 27.5 30 42.5q23 16 51 10t43 -32l475 -760q13 -23 13 -41v-649q0 -29 -20 -49.5t-48 -20.5q-29 0 -49.5 20.5t-20.5 49.5v389h-245q-23 0 -38.5 12.5t-19.5 31t-1 36.5t18.5 30.5t38.5 12.5h247v110h-249q-23 0 -38.5 12.5t-19.5 30.5t-1 36.5t18.5 31 t38.5 12.5h180l-395 633q-14 24 -8 51.5zM348 1458.5q7 27.5 33 40.5q23 15 51 9t41 -31l221 -375l221 375q15 25 43.5 31t51.5 -9q24 -13 31 -40.5t-7 -53.5l-278 -467q-24 -39 -61.5 -38t-61.5 40l-277 465q-15 26 -8 53.5zM762 27v647q0 19 10 39l479 764q15 26 43 32 t52 -10q23 -15 29 -42t-9 -52l-393 -633h192q23 0 38.5 -12.5t18.5 -31t-1 -36.5t-19.5 -30.5t-38.5 -12.5h-262v-110h260q23 0 38.5 -12.5t18.5 -30.5t-1 -36.5t-19.5 -31t-38.5 -12.5h-258v-389q0 -29 -21 -49.5t-49 -20.5t-48.5 20.5t-20.5 49.5z" />
<glyph unicode="&#xa8;" horiz-adv-x="1095" d="M121 1311q0 75 52.5 128.5t127.5 53.5q74 0 128 -53.5t54 -128.5t-54 -128t-128 -53q-75 0 -127.5 53t-52.5 128zM221 1311q0 -32 24 -55t56 -23t55 23t23 55q0 33 -22.5 55.5t-55.5 22.5t-56.5 -22.5t-23.5 -55.5zM635 1311q0 75 53.5 128.5t128.5 53.5q74 0 127 -53.5 t53 -128.5t-53 -128t-127 -53q-75 0 -128.5 53t-53.5 128zM735 1311q0 -32 24 -55t58 -23q31 0 54.5 23t23.5 55q0 33 -23.5 55.5t-54.5 22.5q-34 0 -58 -22.5t-24 -55.5z" />
<glyph unicode="&#xad;" horiz-adv-x="811" d="M69 713.5q0 25.5 18 47t50 21.5h502q32 0 50 -21.5t18 -47t-18 -47t-50 -21.5h-502q-32 0 -50 21.5t-18 47z" />
<glyph unicode="&#xaf;" horiz-adv-x="714" d="M104 1412q0 26 18 47.5t50 21.5h395q43 0 60 -34.5t0 -69t-60 -34.5h-395q-32 0 -50 21.5t-18 47.5z" />
<glyph unicode="&#xb4;" horiz-adv-x="473" d="M75 1186q-1 27 17 45l205 221q20 20 46.5 21t47.5 -17q17 -21 17.5 -47.5t-13.5 -46.5l-207 -217q-21 -21 -46 -22.5t-46 18.5q-20 18 -21 45z" />
<glyph unicode="&#xb7;" horiz-adv-x="505" d="M31 702q0 93 62 155.5t155 62.5t154 -62.5t61 -155.5q0 -90 -61 -152.5t-154 -62.5t-155 62t-62 153zM150 702q0 -42 27.5 -68t70.5 -26q44 0 70 26t26 68q0 43 -26 70t-70 27q-43 0 -70.5 -27t-27.5 -70z" />
<glyph unicode="&#xb8;" horiz-adv-x="659" d="M67.5 -431q-5.5 25 6.5 48q13 23 38 29t50 -6q128 -74 217 -60q52 5 77.5 46.5t-1.5 88.5q-44 59 -162 45q-34 -3 -57.5 19t-16.5 59l25 156q7 26 30 40.5t50 12.5q26 -3 39.5 -25t7.5 -49l-13 -79q131 -11 203 -107q34 -51 36.5 -108t-21.5 -104t-71.5 -81.5 t-107.5 -42.5q-131 -20 -301 80q-23 13 -28.5 38z" />
<glyph unicode="&#xbf;" horiz-adv-x="1044" d="M47 -4q0 48 9 95t19 78.5t36 79t38.5 67.5t49.5 75t49 72q14 22 35.5 28.5t40 -1t33 -22.5t15 -37t-13.5 -44q-11 -17 -47.5 -70t-51 -78t-37 -70t-31.5 -86.5t-9 -86.5q0 -153 97.5 -247t232.5 -99q153 -1 247.5 96t94.5 250q0 32 21.5 50t47 18t47 -18t21.5 -50 q0 -208 -135 -345.5t-344 -133.5q-91 2 -174 36.5t-148 94t-104 150.5t-39 198zM303 834q0 96 63 160.5t158 64.5q99 0 162.5 -64.5t63.5 -160.5q0 -94 -64 -158t-162 -64q-95 0 -158 64t-63 158zM313 -4q-1 87 47 154l213 313q15 22 36.5 28.5t40 -1t33.5 -22.5t16 -37 t-13 -44q-7 -11 -49.5 -72.5t-76 -111t-66.5 -101.5t-39 -69q-22 -61 20 -95q34 -28 72 -13q41 16 41 71q0 32 21.5 50t47 18t47 -18t21.5 -50q0 -71 -37.5 -124.5t-91.5 -75t-116.5 -9.5t-108.5 61q-57 61 -58 148zM422 834q0 -46 28 -73.5t74 -27.5q50 0 78.5 28t28.5 73 q0 48 -28 75t-79 27q-46 0 -74 -27.5t-28 -74.5z" />
<glyph unicode="&#xc0;" d="M37 86q-9 -26 2.5 -52t36.5 -38q26 -9 52 2t38 37l493 1243l494 -1243q10 -26 36.5 -37t53.5 -2q26 12 37 38t0 52l-557 1397q-12 31 -39 39q-25 11 -51.5 -0.5t-36.5 -38.5zM334 34q11 -26 37 -38q28 -9 53.5 2t34.5 37l35 80h331l33 -80q10 -27 36.5 -37.5t53.5 -1.5 q26 12 36 37.5t1 52.5l-49 119q-6 21 -24.5 35t-41.5 14h-424q-19 0 -36.5 -12t-26.5 -31l-49 -125q-11 -26 0 -52zM492 459q0 -29 19.5 -49.5t47.5 -20.5h199q29 0 50 20.5t21 49.5q0 14 -6 26l-100 246q-11 25 -36.5 35t-53.5 0q-25 -9 -35.5 -35t-1.5 -53l61 -152h-98 q-28 0 -47.5 -19t-19.5 -48zM496.5 1883.5q0.5 26.5 17.5 47.5q21 18 47.5 17t46.5 -21l205 -221q18 -18 17 -45t-21 -45q-21 -20 -46 -18.5t-46 22.5l-207 217q-14 20 -13.5 46.5z" />
<glyph unicode="&#xc1;" d="M37 86l559 1397q10 27 36.5 38.5t51.5 0.5q27 -8 39 -39l557 -1397q11 -26 0 -52t-37 -38q-27 -9 -53.5 2t-36.5 37l-494 1243l-493 -1243q-12 -26 -38 -37t-52 -2q-25 12 -36.5 38t-2.5 52zM334 34q-11 26 0 52l49 125q9 19 26.5 31t36.5 12h424q23 0 41.5 -14t24.5 -35 l49 -119q9 -27 -1 -52.5t-36 -37.5q-27 -9 -53.5 1.5t-36.5 37.5l-33 80h-331l-35 -80q-9 -26 -34.5 -37t-53.5 -2q-26 12 -37 38zM492 459q0 29 19.5 48t47.5 19h98l-61 152q-9 27 1.5 53t35.5 35q28 10 53.5 0t36.5 -35l100 -246q6 -12 6 -26q0 -29 -21 -49.5t-50 -20.5 h-199q-28 0 -47.5 20.5t-19.5 49.5zM499 1657q-1 27 17 45l205 221q20 20 46.5 21t47.5 -17q17 -21 17.5 -47.5t-13.5 -46.5l-207 -217q-21 -21 -46 -22.5t-46 18.5q-20 18 -21 45z" />
<glyph unicode="&#xc2;" d="M37 86q-9 -26 2.5 -52t36.5 -38q26 -9 52 2t38 37l493 1243l494 -1243q10 -26 36.5 -37t53.5 -2q26 12 37 38t0 52l-557 1397q-12 31 -39 39q-25 11 -51.5 -0.5t-36.5 -38.5zM334 34q11 -26 37 -38q28 -9 53.5 2t34.5 37l35 80h331l33 -80q10 -27 36.5 -37.5t53.5 -1.5 q26 12 36 37.5t1 52.5l-49 119q-6 21 -24.5 35t-41.5 14h-424q-19 0 -36.5 -12t-26.5 -31l-49 -125q-11 -26 0 -52zM372.5 1626.5q2.5 25.5 22.5 42.5l228 186q16 14 39 15t43 -15l227 -186q20 -17 22.5 -42.5t-14.5 -45.5q-19 -21 -44 -23.5t-46 15.5l-188 151l-183 -151 q-25 -18 -51 -15.5t-41 23.5q-17 20 -14.5 45.5zM492 459q0 -29 19.5 -49.5t47.5 -20.5h199q29 0 50 20.5t21 49.5q0 14 -6 26l-100 246q-11 25 -36.5 35t-53.5 0q-25 -9 -35.5 -35t-1.5 -53l61 -152h-98q-28 0 -47.5 -19t-19.5 -48z" />
<glyph unicode="&#xc3;" d="M37 86l559 1397q10 27 36.5 38.5t51.5 0.5q27 -8 39 -39l557 -1397q11 -26 0 -52t-37 -38q-27 -9 -53.5 2t-36.5 37l-494 1243l-493 -1243q-12 -26 -38 -37t-52 -2q-25 12 -36.5 38t-2.5 52zM334 34q-11 26 0 52l49 125q9 19 26.5 31t36.5 12h424q23 0 41.5 -14t24.5 -35 l49 -119q9 -27 -1 -52.5t-36 -37.5q-27 -9 -53.5 1.5t-36.5 37.5l-33 80h-331l-35 -80q-9 -26 -34.5 -37t-53.5 -2q-26 12 -37 38zM352 1664.5q-7 24.5 4 47.5q51 94 121.5 124.5t157.5 -15.5q24 -13 58.5 -39.5t47.5 -34.5q21 -13 39 -14.5t32 8t24.5 23t21.5 34.5 q10 22 35 29.5t49 -2.5q21 -12 28.5 -38.5t-3.5 -49.5q-29 -61 -71.5 -96.5t-95.5 -40.5t-112 30q-22 12 -54 38.5t-50 35.5q-22 12 -40 13.5t-32 -7t-24.5 -21t-20.5 -32.5q-27 -53 -88 -27q-20 10 -27 34.5zM492 459q0 29 19.5 48t47.5 19h98l-61 152q-9 27 1.5 53 t35.5 35q28 10 53.5 0t36.5 -35l100 -246q6 -12 6 -26q0 -29 -21 -49.5t-50 -20.5h-199q-28 0 -47.5 20.5t-19.5 49.5z" />
<glyph unicode="&#xc4;" d="M37 86l559 1397q10 27 36.5 38.5t51.5 0.5q27 -8 39 -39l557 -1397q11 -26 0 -52t-37 -38q-27 -9 -53.5 2t-36.5 37l-494 1243l-493 -1243q-12 -26 -38 -37t-52 -2q-25 12 -36.5 38t-2.5 52zM225 1722q0 72 53 123t128 51q74 0 128 -51t54 -123q0 -70 -54 -120t-128 -50 q-75 0 -128 50t-53 120zM326 1722q0 -29 24 -51t56 -22t54.5 21.5t22.5 51.5q0 32 -22.5 54t-54.5 22q-33 0 -56.5 -22t-23.5 -54zM334 34q-11 26 0 52l49 125q9 19 26.5 31t36.5 12h424q23 0 41.5 -14t24.5 -35l49 -119q9 -27 -1 -52.5t-36 -37.5q-27 -9 -53.5 1.5 t-36.5 37.5l-33 80h-331l-35 -80q-9 -26 -34.5 -37t-53.5 -2q-26 12 -37 38zM492 459q0 29 19.5 48t47.5 19h98l-61 152q-9 27 1.5 53t35.5 35q28 10 53.5 0t36.5 -35l100 -246q6 -12 6 -26q0 -29 -21 -49.5t-50 -20.5h-199q-28 0 -47.5 20.5t-19.5 49.5zM739 1722 q0 72 54 123t129 51q74 0 127 -51t53 -123q0 -70 -53 -120t-127 -50q-75 0 -129 50t-54 120zM840 1722q0 -29 24 -51t58 -22q31 0 54 22t23 51q0 32 -23 54t-54 22q-34 0 -58 -22t-24 -54z" />
<glyph unicode="&#xc5;" d="M37 86l491 1225q-60 34 -95.5 95t-35.5 134q0 113 76.5 189.5t190.5 76.5q115 0 189.5 -76.5t74.5 -189.5q0 -74 -36.5 -136.5t-98.5 -96.5l487 -1221q11 -26 0 -52t-37 -38q-27 -9 -53.5 2t-36.5 37l-494 1241h-2l-491 -1241q-12 -26 -38 -37t-52 -2q-25 12 -36.5 38 t-2.5 52zM334 34q-11 26 0 52l49 125q9 19 26.5 31t36.5 12h424q23 0 41.5 -14t24.5 -35l49 -119q9 -27 -1 -52.5t-36 -37.5q-27 -9 -53.5 1.5t-36.5 37.5l-33 80h-331l-35 -80q-9 -26 -34.5 -37t-53.5 -2q-26 12 -37 38zM492 459q0 29 19.5 48t47.5 19h98l-61 152 q-9 27 1.5 53t35.5 35q28 10 53.5 0t36.5 -35l100 -246q6 -12 6 -26q0 -29 -21 -49.5t-50 -20.5h-199q-28 0 -47.5 20.5t-19.5 49.5zM526 1540q0 -59 38.5 -96t99.5 -37q62 0 98.5 37t36.5 96q0 61 -36.5 98t-98.5 37q-60 0 -99 -37.5t-39 -97.5z" />
<glyph unicode="&#xc6;" horiz-adv-x="1787" d="M43.5 12q-11.5 26 1.5 54l631 1386q6 22 25 34.5t42 8.5h848q32 0 50 -21.5t18 -48t-18 -48t-50 -21.5h-581v-862q0 -72 -32 -93.5t-106 -21.5h-280q-39 0 -60.5 32t-7.5 66l109 271q17 39 55.5 41.5t64.5 -27t11 -70.5l-70 -172h178v836h-90l-606 -1342 q-12 -26 -39.5 -38.5t-52.5 -0.5q-29 11 -40.5 37zM345.5 12.5q-11.5 26.5 0.5 53.5l51 120q3 22 22.5 36t43.5 14h416q77 0 104 -24t27 -103h594q34 0 53.5 -22t19.5 -48t-19.5 -48t-53.5 -22h-660q-33 0 -52.5 20t-19.5 50v59h-362l-33 -84q-11 -25 -40.5 -38t-53.5 -1 q-26 11 -37.5 37.5zM1149 317q0 -29 18.5 -50t46.5 -21h390q34 0 53.5 22.5t19.5 49t-19.5 49t-53.5 22.5h-320v135h248q27 0 48.5 20.5t21.5 47.5q0 31 -21.5 51.5t-48.5 20.5h-318q-29 0 -47 -20t-18 -52v-275zM1149 872q0 -29 18.5 -50t46.5 -21h318q26 0 48 21.5 t22 49.5q0 27 -21.5 48.5t-48.5 21.5h-248v139h307q43 0 60 34.5t0 69t-60 34.5h-377q-29 0 -47 -19t-18 -47v-281z" />
<glyph unicode="&#xc7;" horiz-adv-x="1284" d="M98 735q-1 118 29 230t93 211.5t153 174.5t217.5 118.5t277.5 43.5q158 0 303 -59q29 -12 37.5 -39t-1 -50.5t-34.5 -36.5t-55 -1q-119 51 -256 51q-181 0 -326 -84.5t-225 -230.5t-80 -324q1 -98 26.5 -190t78 -173t127 -141.5t179 -95.5t226.5 -35q121 0 250 50 q24 9 45.5 3.5t33 -23t15.5 -37t-7 -39.5t-34 -29q-148 -60 -303 -60q-9 0 -26.5 1t-26.5 1v-4l-18 -98q85 -1 130.5 -22.5t78.5 -65.5q34 -51 36.5 -108t-21.5 -104t-71.5 -81.5t-107.5 -42.5q-131 -20 -301 80q-23 13 -29 38t6 48q13 23 38.5 28.5t49.5 -6.5 q127 -73 217 -59q52 5 77.5 46.5t-1.5 88.5q-38 50 -164 35q-34 -3 -57 19t-16 59l26 166q-114 23 -211 75.5t-165.5 124.5t-117 161.5t-72 186.5t-24.5 199zM391 739q0 103 32.5 190.5t88 148t130.5 100t157 51t171 -5t171 -62.5q23 -12 31.5 -32.5t3 -39.5t-19 -35 t-35 -19t-44.5 9q-88 49 -186 52t-178.5 -34.5t-133.5 -122.5t-53 -200q0 -161 97 -255t237 -99q116 -3 217 53q23 11 44.5 7.5t35 -19.5t19 -35t-3 -39.5t-31.5 -32.5q-128 -74 -279 -71q-94 2 -179 36.5t-150 96.5t-103.5 155t-38.5 203z" />
<glyph unicode="&#xc8;" horiz-adv-x="1120" d="M164 47q0 -28 19.5 -47.5t47.5 -19.5h709q29 0 49.5 19.5t20.5 47.5q0 29 -20.5 49.5t-49.5 20.5h-639v1231h639q29 0 49.5 20t20.5 49q0 28 -20.5 48t-49.5 20h-709q-28 0 -47.5 -20t-19.5 -48v-1370zM392.5 1864q0.5 25 17.5 45q21 15 47.5 14.5t46.5 -18.5l203 -207 q17 -17 16 -42t-21 -42q-21 -18 -45 -16.5t-45 20.5l-206 203q-14 18 -13.5 43zM436 322q0 -28 20.5 -48t49.5 -20h434q29 0 49.5 20t20.5 48q0 29 -20.5 49t-49.5 20h-367v135h240q29 0 49.5 20.5t20.5 49.5q0 28 -20.5 48t-49.5 20h-307q-29 0 -49.5 -20t-20.5 -48v-274z M436 868q0 -28 20.5 -47.5t49.5 -19.5h307q29 0 49.5 19.5t20.5 47.5q0 29 -20.5 49.5t-49.5 20.5h-240v137h367q29 0 49.5 20t20.5 48q0 29 -20 48t-50 19h-434q-30 0 -50 -19t-20 -48v-275z" />
<glyph unicode="&#xc9;" horiz-adv-x="1120" d="M164 47v1370q0 28 19.5 48t47.5 20h709q29 0 49.5 -20t20.5 -48q0 -29 -20.5 -49t-49.5 -20h-639v-1231h639q29 0 49.5 -20.5t20.5 -49.5q0 -28 -20.5 -47.5t-49.5 -19.5h-709q-28 0 -47.5 19.5t-19.5 47.5zM436 322v274q0 28 20.5 48t49.5 20h307q29 0 49.5 -20 t20.5 -48q0 -29 -20.5 -49.5t-49.5 -20.5h-240v-135h367q29 0 49.5 -20t20.5 -49q0 -28 -20.5 -48t-49.5 -20h-434q-29 0 -49.5 20t-20.5 48zM436 868v275q0 29 20 48t50 19h434q30 0 50 -19t20 -48q0 -28 -20.5 -48t-49.5 -20h-367v-137h240q29 0 49.5 -20.5t20.5 -49.5 q0 -28 -20.5 -47.5t-49.5 -19.5h-307q-29 0 -49.5 19.5t-20.5 47.5zM455 1644q-1 25 18 42l217 208q21 18 50.5 18.5t52.5 -14.5q17 -20 17.5 -45t-13.5 -43l-222 -204q-22 -21 -49 -22.5t-49 18.5q-21 17 -22 42z" />
<glyph unicode="&#xca;" horiz-adv-x="1120" d="M164 47q0 -28 19.5 -47.5t47.5 -19.5h709q29 0 49.5 19.5t20.5 47.5q0 29 -20.5 49.5t-49.5 20.5h-639v1231h639q29 0 49.5 20t20.5 49q0 28 -20.5 48t-49.5 20h-709q-28 0 -47.5 -20t-19.5 -48v-1370zM299 1649.5q3 25.5 23 42.5l227 186q16 14 39 15t43 -15l227 -186 q20 -17 22.5 -42.5t-14.5 -45.5q-19 -21 -44 -24t-46 15l-188 152l-182 -152q-25 -18 -51.5 -15t-41.5 24q-17 20 -14 45.5zM436 322q0 -28 20.5 -48t49.5 -20h434q29 0 49.5 20t20.5 48q0 29 -20.5 49t-49.5 20h-367v135h240q29 0 49.5 20.5t20.5 49.5q0 28 -20.5 48 t-49.5 20h-307q-29 0 -49.5 -20t-20.5 -48v-274zM436 868q0 -28 20.5 -47.5t49.5 -19.5h307q29 0 49.5 19.5t20.5 47.5q0 29 -20.5 49.5t-49.5 20.5h-240v137h367q29 0 49.5 20t20.5 48q0 29 -20 48t-50 19h-434q-30 0 -50 -19t-20 -48v-275z" />
<glyph unicode="&#xcb;" horiz-adv-x="1120" d="M164 47v1370q0 28 19.5 48t47.5 20h709q29 0 49.5 -20t20.5 -48q0 -29 -20.5 -49t-49.5 -20h-639v-1231h639q29 0 49.5 -20.5t20.5 -49.5q0 -28 -20.5 -47.5t-49.5 -19.5h-709q-28 0 -47.5 19.5t-19.5 47.5zM176 1737q0 69 50.5 117.5t123.5 48.5q71 0 122.5 -48.5 t51.5 -117.5t-51.5 -117.5t-122.5 -48.5q-73 0 -123.5 48.5t-50.5 117.5zM272 1737q0 -29 23 -50.5t55 -21.5q31 0 52.5 21.5t21.5 50.5q0 30 -21.5 50.5t-52.5 20.5q-33 0 -55.5 -20.5t-22.5 -50.5zM436 322v274q0 28 20.5 48t49.5 20h307q29 0 49.5 -20t20.5 -48 q0 -29 -20.5 -49.5t-49.5 -20.5h-240v-135h367q29 0 49.5 -20t20.5 -49q0 -28 -20.5 -48t-49.5 -20h-434q-29 0 -49.5 20t-20.5 48zM436 868v275q0 29 20 48t50 19h434q30 0 50 -19t20 -48q0 -28 -20.5 -48t-49.5 -20h-367v-137h240q29 0 49.5 -20.5t20.5 -49.5 q0 -28 -20.5 -47.5t-49.5 -19.5h-307q-29 0 -49.5 19.5t-20.5 47.5zM670 1737q0 69 52 117.5t124 48.5q71 0 122.5 -48.5t51.5 -117.5t-51.5 -117.5t-122.5 -48.5q-72 0 -124 48.5t-52 117.5zM768 1737q0 -29 23 -50.5t55 -21.5q30 0 53 21.5t23 50.5q0 30 -23 50.5 t-53 20.5q-33 0 -55.5 -20.5t-22.5 -50.5z" />
<glyph unicode="&#xcc;" horiz-adv-x="741" d="M164 47q0 -28 20 -47.5t49 -19.5q28 0 48 19.5t20 47.5v1370q0 28 -20 48t-48 20q-29 0 -49 -20t-20 -48v-1370zM203.5 1859q0.5 27 17.5 48q21 18 47.5 17t46.5 -21l205 -222q18 -18 17 -45t-21 -45q-21 -20 -46 -18.5t-46 22.5l-207 217q-14 20 -13.5 47zM438 47 q0 -28 20.5 -47.5t49.5 -19.5q28 0 47.5 19.5t19.5 47.5v1370q0 28 -19.5 48t-47.5 20q-29 0 -49.5 -20t-20.5 -48v-1370z" />
<glyph unicode="&#xcd;" horiz-adv-x="741" d="M164 47v1370q0 28 20 48t49 20q28 0 48 -20t20 -48v-1370q0 -28 -20 -47.5t-48 -19.5q-29 0 -49 19.5t-20 47.5zM204 1626q-1 27 17 45l205 221q20 20 46.5 21t47.5 -17q17 -21 17.5 -47.5t-13.5 -46.5l-207 -217q-21 -21 -46 -22.5t-46 18.5q-20 18 -21 45zM438 47v1370 q0 28 20.5 48t49.5 20q28 0 47.5 -20t19.5 -48v-1370q0 -28 -19.5 -47.5t-47.5 -19.5q-29 0 -49.5 19.5t-20.5 47.5z" />
<glyph unicode="&#xce;" horiz-adv-x="741" d="M79.5 1663.5q2.5 25.5 22.5 42.5l228 186q16 14 39 15t43 -15l227 -186q20 -17 22.5 -42.5t-14.5 -45.5q-19 -21 -44 -23.5t-46 15.5l-188 151l-183 -151q-25 -18 -51 -15.5t-41 23.5q-17 20 -14.5 45.5zM164 47q0 -28 20 -47.5t49 -19.5q28 0 48 19.5t20 47.5v1370 q0 28 -20 48t-48 20q-29 0 -49 -20t-20 -48v-1370zM438 47q0 -28 20.5 -47.5t49.5 -19.5q28 0 47.5 19.5t19.5 47.5v1370q0 28 -19.5 48t-47.5 20q-29 0 -49.5 -20t-20.5 -48v-1370z" />
<glyph unicode="&#xcf;" horiz-adv-x="741" d="M-43 1757q0 72 52.5 124t127.5 52q74 0 128 -52t54 -124t-54 -123t-128 -51q-75 0 -127.5 51t-52.5 123zM57 1757q0 -31 24 -53.5t56 -22.5t55 22.5t23 53.5q0 32 -23 54t-55 22q-33 0 -56.5 -22t-23.5 -54zM164 47v1370q0 28 20 48t49 20q28 0 48 -20t20 -48v-1370 q0 -28 -20 -47.5t-48 -19.5q-29 0 -49 19.5t-20 47.5zM408 1757q0 72 53.5 124t128.5 52q74 0 127 -52t53 -124t-53 -123t-127 -51q-75 0 -128.5 51t-53.5 123zM438 47v1370q0 28 20.5 48t49.5 20q28 0 47.5 -20t19.5 -48v-1370q0 -28 -19.5 -47.5t-47.5 -19.5 q-29 0 -49.5 19.5t-20.5 47.5zM508 1757q0 -31 24 -53.5t58 -22.5q31 0 54.5 22.5t23.5 53.5q0 32 -23.5 54t-54.5 22q-34 0 -58 -22t-24 -54z" />
<glyph unicode="&#xd0;" horiz-adv-x="1505" d="M4 707.5q0 25.5 18 47t50 21.5h92v641q0 28 19.5 48t47.5 20h410q164 0 305 -57t239 -156.5t154 -239t56 -299.5q0 -215 -95 -386.5t-267.5 -269t-391.5 -97.5h-137q-28 0 -48 19.5t-20 47.5q0 29 20 49.5t48 20.5h137q181 0 321.5 79t217.5 219t77 318q0 269 -171.5 442 t-444.5 173h-340v-1301q0 -28 -20.5 -47.5t-49.5 -19.5q-28 0 -47.5 19.5t-19.5 47.5v592h-92q-32 0 -50 21.5t-18 47zM438 322q0 28 20 47.5t48 19.5h135q150 0 241 97.5t91 246.5q0 148 -91 245t-241 97h-68v-299h164q32 0 50 -21.5t18 -47t-18 -47t-50 -21.5h-231 q-28 0 -48 20.5t-20 49.5v434q0 29 20 49t48 20h135q207 0 337 -137t130 -342q0 -206 -130 -343.5t-337 -137.5h-135q-28 0 -48 20.5t-20 49.5z" />
<glyph unicode="&#xd1;" horiz-adv-x="1583" d="M164 47v1370q0 28 19.5 47t47.5 19q29 0 48.5 -19t19.5 -47v-1370q0 -28 -19.5 -49t-48.5 -21q-27 0 -47 21t-20 49zM412 1428q5 27 28 42q24 18 52 13t43 -29l471 -674v637q0 27 20.5 46.5t48.5 19.5t48 -19t20 -47v-852q0 -38 -31 -57q-23 -17 -50 -12t-44 28l-594 852 q-17 25 -12 52zM438 47v852q0 38 29 55q22 19 50.5 14t43.5 -30l596 -852q15 -23 10.5 -50t-26.5 -46q-25 -15 -52.5 -10t-44.5 28l-471 674v-635q0 -28 -20 -47.5t-49 -19.5q-28 0 -47 19.5t-19 47.5zM473.5 1656.5q-7.5 24.5 3.5 47.5q53 93 126 122.5t161 -16.5 q25 -13 60.5 -39t49.5 -34q22 -12 40 -13.5t32.5 7.5t25 22.5t21.5 34.5q12 23 37 30t51 -3q21 -12 28.5 -39t-3.5 -50q-46 -91 -120 -121t-167 17q-22 11 -55 38t-53 36q-74 38 -119 -47q-13 -26 -38 -33t-52 6q-21 10 -28.5 34.5zM1280 47v1370q0 28 20 47t48 19 q29 0 49 -19t20 -47v-1370q0 -28 -20 -49t-49 -21q-28 0 -48 21t-20 49z" />
<glyph unicode="&#xd2;" horiz-adv-x="1763" d="M114 734.5q0 -146.5 50.5 -287t143.5 -250.5t245 -177t340 -67q255 0 469 151q100 72 174.5 174.5t112.5 221.5q8 28 -5 54.5t-40 33.5q-28 8 -54.5 -5t-33.5 -40q-66 -204 -238 -326q-167 -123 -385 -123q-204 0 -354 95t-217.5 237.5t-67.5 308.5t67.5 308.5 t217.5 237.5t354 95q213 0 385 -123q172 -125 238 -325q7 -28 33.5 -41t54.5 -4q27 7 40 32.5t5 53.5q-76 242 -287 397q-212 150 -469 150q-188 0 -340 -67t-245 -177t-143.5 -250.5t-50.5 -287zM463.5 540q-7.5 -27 7.5 -53q65 -115 178 -184q117 -65 244 -65 q206 0 350 147q141 148 141 350t-141 350q-146 146 -350 146q-130 0 -244 -66q-112 -65 -178 -182q-15 -26 -7.5 -54t32.5 -42q26 -14 53.5 -6t40.5 34q51 82 131 129q79 48 172 48q146 0 248 -105q104 -99 104 -252q0 -155 -104 -254q-96 -104 -248 -104q-95 0 -172 49 q-77 42 -131 129q-13 26 -40.5 33.5t-53.5 -6.5q-25 -15 -32.5 -42zM695.5 1898q0.5 27 17.5 48q21 18 47.5 17t46.5 -21l205 -222q18 -18 17 -45t-21 -45q-21 -20 -46.5 -18.5t-46.5 22.5l-206 217q-14 20 -13.5 47z" />
<glyph unicode="&#xd3;" horiz-adv-x="1763" d="M114 734.5q0 146.5 50.5 287t143.5 250.5t245 177t340 67q257 0 469 -150q211 -155 287 -397q8 -28 -5 -53.5t-40 -32.5q-28 -9 -54.5 4t-33.5 41q-66 200 -238 325q-172 123 -385 123q-124 0 -230 -36t-180.5 -97.5t-127.5 -143.5t-77.5 -174.5t-24.5 -189.5 t24.5 -189.5t77.5 -174.5t127.5 -143.5t180.5 -97.5t230 -36q218 0 385 123q172 122 238 326q7 27 33.5 40t54.5 5q27 -7 40 -33.5t5 -54.5q-38 -119 -112.5 -221.5t-174.5 -174.5q-214 -151 -469 -151q-188 0 -340 67t-245 177t-143.5 250.5t-50.5 287zM463.5 540 q7.5 27 32.5 42q26 14 53.5 6.5t40.5 -33.5q54 -87 131 -129q77 -49 172 -49q152 0 248 104q104 99 104 254q0 153 -104 252q-102 105 -248 105q-93 0 -172 -48q-80 -47 -131 -129q-13 -26 -40.5 -34t-53.5 6q-25 14 -32.5 42t7.5 54q66 117 178 182q114 66 244 66 q204 0 350 -146q141 -148 141 -350t-141 -350q-144 -147 -350 -147q-127 0 -244 65q-113 69 -178 184q-15 26 -7.5 53zM759 1679q-1 27 17 45l205 222q20 20 46.5 21t47.5 -17q17 -21 17.5 -48t-13.5 -47l-207 -217q-21 -21 -46 -22.5t-46 18.5q-20 18 -21 45z" />
<glyph unicode="&#xd4;" horiz-adv-x="1763" d="M114 734.5q0 -146.5 50.5 -287t143.5 -250.5t245 -177t340 -67q255 0 469 151q100 72 174.5 174.5t112.5 221.5q8 28 -5 54.5t-40 33.5q-28 8 -54.5 -5t-33.5 -40q-66 -204 -238 -326q-167 -123 -385 -123q-204 0 -354 95t-217.5 237.5t-67.5 308.5t67.5 308.5 t217.5 237.5t354 95q213 0 385 -123q172 -125 238 -325q7 -28 33.5 -41t54.5 -4q27 7 40 32.5t5 53.5q-76 242 -287 397q-212 150 -469 150q-188 0 -340 -67t-245 -177t-143.5 -250.5t-50.5 -287zM463.5 540q-7.5 -27 7.5 -53q65 -115 178 -184q117 -65 244 -65 q206 0 350 147q141 148 141 350t-141 350q-146 146 -350 146q-130 0 -244 -66q-112 -65 -178 -182q-15 -26 -7.5 -54t32.5 -42q26 -14 53.5 -6t40.5 34q51 82 131 129q79 48 172 48q146 0 248 -105q104 -99 104 -252q0 -155 -104 -254q-96 -104 -248 -104q-95 0 -172 49 q-77 42 -131 129q-13 26 -40.5 33.5t-53.5 -6.5q-25 -15 -32.5 -42zM589.5 1702.5q2.5 25.5 22.5 42.5l228 186q16 14 39 15t43 -15l227 -186q20 -17 22.5 -42.5t-14.5 -45.5q-19 -21 -44 -23.5t-46 15.5l-188 151l-183 -151q-25 -18 -51 -15.5t-41 23.5q-17 20 -14.5 45.5z " />
<glyph unicode="&#xd5;" horiz-adv-x="1763" d="M114 734.5q0 146.5 50.5 287t143.5 250.5t245 177t340 67q257 0 469 -150q211 -155 287 -397q8 -28 -5 -53.5t-40 -32.5q-28 -9 -54.5 4t-33.5 41q-66 200 -238 325q-172 123 -385 123q-124 0 -230 -36t-180.5 -97.5t-127.5 -143.5t-77.5 -174.5t-24.5 -189.5 t24.5 -189.5t77.5 -174.5t127.5 -143.5t180.5 -97.5t230 -36q218 0 385 123q172 122 238 326q7 27 33.5 40t54.5 5q27 -7 40 -33.5t5 -54.5q-38 -119 -112.5 -221.5t-174.5 -174.5q-214 -151 -469 -151q-188 0 -340 67t-245 177t-143.5 250.5t-50.5 287zM463.5 540 q7.5 27 32.5 42q26 14 53.5 6.5t40.5 -33.5q54 -87 131 -129q77 -49 172 -49q152 0 248 104q104 99 104 254q0 153 -104 252q-102 105 -248 105q-93 0 -172 -48q-80 -47 -131 -129q-13 -26 -40.5 -34t-53.5 6q-25 14 -32.5 42t7.5 54q66 117 178 182q114 66 244 66 q204 0 350 -146q141 -148 141 -350t-141 -350q-144 -147 -350 -147q-127 0 -244 65q-113 69 -178 184q-15 26 -7.5 53zM563.5 1711.5q-7.5 24.5 3.5 47.5q53 93 126 123t161 -16q25 -13 61 -39.5t50 -34.5q22 -12 40 -13.5t32 7.5t24.5 22.5t21.5 34.5q12 23 37 30t51 -3 q21 -12 28.5 -38.5t-3.5 -49.5q-46 -92 -120 -122t-167 17q-22 11 -55 38t-53 36q-74 38 -119 -47q-13 -26 -38 -33t-52 6q-21 10 -28.5 34.5z" />
<glyph unicode="&#xd6;" horiz-adv-x="1763" d="M114 734.5q0 146.5 50.5 287t143.5 250.5t245 177t340 67q257 0 469 -150q211 -155 287 -397q8 -28 -5 -53.5t-40 -32.5q-28 -9 -54.5 4t-33.5 41q-66 200 -238 325q-172 123 -385 123q-124 0 -230 -36t-180.5 -97.5t-127.5 -143.5t-77.5 -174.5t-24.5 -189.5 t24.5 -189.5t77.5 -174.5t127.5 -143.5t180.5 -97.5t230 -36q218 0 385 123q172 122 238 326q7 27 33.5 40t54.5 5q27 -7 40 -33.5t5 -54.5q-38 -119 -112.5 -221.5t-174.5 -174.5q-214 -151 -469 -151q-188 0 -340 67t-245 177t-143.5 250.5t-50.5 287zM442 1763 q0 75 53 129t128 54q74 0 128 -54t54 -129q0 -74 -54 -127t-128 -53q-75 0 -128 52.5t-53 127.5zM463.5 540q7.5 27 32.5 42q26 14 53.5 6.5t40.5 -33.5q54 -87 131 -129q77 -49 172 -49q152 0 248 104q104 99 104 254q0 153 -104 252q-102 105 -248 105q-93 0 -172 -48 q-80 -47 -131 -129q-13 -26 -40.5 -34t-53.5 6q-25 14 -32.5 42t7.5 54q66 117 178 182q114 66 244 66q204 0 350 -146q141 -148 141 -350t-141 -350q-144 -147 -350 -147q-127 0 -244 65q-113 69 -178 184q-15 26 -7.5 53zM543 1763q0 -32 23.5 -54.5t56.5 -22.5 q32 0 54.5 22.5t22.5 54.5q0 33 -22 55.5t-55 22.5t-56.5 -22.5t-23.5 -55.5zM956 1763q0 75 54 129t129 54q74 0 127 -54t53 -129t-53 -127.5t-127 -52.5q-75 0 -129 52.5t-54 127.5zM1057 1763q0 -32 24 -54.5t58 -22.5q31 0 54.5 22.5t23.5 54.5q0 33 -23.5 55.5 t-54.5 22.5q-34 0 -58 -22.5t-24 -55.5z" />
<glyph unicode="&#xd8;" horiz-adv-x="1712" d="M93.5 702.5q-4.5 120.5 22 233.5t89 215.5t151.5 179t217.5 121.5t280.5 45q174 0 324 -67l88 147q10 23 35 29t45 -7q20 -12 26.5 -35.5t-4.5 -45.5l-84 -146q22 -18 31 -22q208 -155 280 -387q9 -26 -5 -51t-42 -33q-26 -9 -50.5 4t-33.5 39q-62 196 -229 319 q-2 2 -18 10l-76 -125q32 -26 55 -51q67 -65 104 -154t37 -188t-37 -188t-104 -154q-65 -70 -153.5 -108.5t-188.5 -38.5q-123 0 -238 67q-110 64 -174 176q-15 26 -8 55.5t31 43.5q26 12 53.5 4.5t40.5 -31.5q21 -46 68 -86l342 592q-59 18 -115 18q-93 0 -166 -49 q-79 -44 -129 -125q-13 -25 -40.5 -32.5t-53.5 6.5q-24 14 -31 40.5t8 51.5q69 121 174 182q116 64 238 64q108 0 182 -35l74 125q-126 49 -256 49q-152 0 -274.5 -54t-198 -142t-116 -200.5t-40.5 -230.5t40.5 -230.5t116 -200.5t198 -142t274.5 -54q215 0 381 119 q167 126 229 320q9 27 33.5 40.5t50.5 4.5q28 -9 42 -34.5t5 -51.5q-36 -118 -109 -217.5t-171 -169.5q-203 -148 -461 -148q-186 0 -342 70l-84 -152q-12 -21 -37 -26.5t-47 6.5q-23 12 -29 35.5t7 44.5l88 149q-99 68 -169.5 166.5t-106.5 209t-40.5 231zM729 410 q62 -27 125 -27q146 0 246 100q100 108 100 250q0 71 -26.5 136.5t-73.5 113.5q-5 3 -14.5 10.5t-14.5 10.5z" />
<glyph unicode="&#xd9;" horiz-adv-x="1466" d="M156 526q0 -136 49.5 -245.5t130.5 -177t184.5 -104.5t211 -37t211 36.5t184.5 104t130.5 177.5t49.5 246v893q0 29 -20 49.5t-48 20.5q-29 0 -48.5 -20.5t-19.5 -49.5v-893q0 -104 -37.5 -187.5t-99.5 -135t-141 -79.5t-161 -28t-161 28t-141 79.5t-99.5 135 t-37.5 187.5v893q0 29 -20.5 49.5t-49.5 20.5q-28 0 -47.5 -20.5t-19.5 -49.5v-893zM436 543q0 -72 25.5 -130.5t67 -94.5t94.5 -55.5t109 -19.5t109 19.5t94.5 55.5t67 94.5t25.5 130.5v876q0 29 -19.5 49.5t-47.5 20.5q-30 0 -50 -20t-20 -50v-876q0 -45 -17.5 -80 t-45.5 -53t-62 -26.5t-68 0t-62 26.5t-45.5 53t-17.5 80v876q0 29 -20 49.5t-49 20.5q-28 0 -48 -20.5t-20 -49.5v-876zM539.5 1859q0.5 27 17.5 48q21 18 47.5 17t46.5 -21l205 -222q18 -18 17 -45t-21 -45q-21 -20 -46 -18.5t-46 22.5l-207 217q-14 20 -13.5 47z" />
<glyph unicode="&#xda;" horiz-adv-x="1466" d="M156 526v893q0 29 19.5 49.5t47.5 20.5q29 0 49.5 -20.5t20.5 -49.5v-893q0 -104 37.5 -187.5t99.5 -135t141 -79.5t161 -28t161 28t141 79.5t99.5 135t37.5 187.5v893q0 29 19.5 49.5t48.5 20.5q28 0 48 -20.5t20 -49.5v-893q0 -136 -49.5 -246t-130.5 -177.5 t-184.5 -104t-211 -36.5t-211 37t-184.5 104.5t-130.5 177t-49.5 245.5zM436 543v876q0 29 20 49.5t48 20.5q29 0 49 -20.5t20 -49.5v-876q0 -45 17.5 -80t45.5 -53t62 -26.5t68 0t62 26.5t45.5 53t17.5 80v876q0 30 20 50t50 20q28 0 47.5 -20.5t19.5 -49.5v-876 q0 -72 -25.5 -130.5t-67 -94.5t-94.5 -55.5t-109 -19.5t-109 19.5t-94.5 55.5t-67 94.5t-25.5 130.5zM567 1626q-1 27 17 45l204 221q20 20 47 21t48 -17q17 -21 17.5 -47.5t-13.5 -46.5l-207 -217q-21 -21 -46 -22.5t-46 18.5q-20 18 -21 45z" />
<glyph unicode="&#xdb;" horiz-adv-x="1466" d="M156 526q0 -136 49.5 -245.5t130.5 -177t184.5 -104.5t211 -37t211 36.5t184.5 104t130.5 177.5t49.5 246v893q0 29 -20 49.5t-48 20.5q-29 0 -48.5 -20.5t-19.5 -49.5v-893q0 -104 -37.5 -187.5t-99.5 -135t-141 -79.5t-161 -28t-161 28t-141 79.5t-99.5 135 t-37.5 187.5v893q0 29 -20.5 49.5t-49.5 20.5q-28 0 -47.5 -20.5t-19.5 -49.5v-893zM436 543q0 -72 25.5 -130.5t67 -94.5t94.5 -55.5t109 -19.5t109 19.5t94.5 55.5t67 94.5t25.5 130.5v876q0 29 -19.5 49.5t-47.5 20.5q-30 0 -50 -20t-20 -50v-876q0 -45 -17.5 -80 t-45.5 -53t-62 -26.5t-68 0t-62 26.5t-45.5 53t-17.5 80v876q0 29 -20 49.5t-49 20.5q-28 0 -48 -20.5t-20 -49.5v-876zM442.5 1679.5q2.5 25.5 22.5 42.5l227 187q16 14 39 15t43 -15l227 -187q20 -17 23 -42.5t-14 -45.5q-19 -21 -44 -23.5t-46 15.5l-189 152l-182 -152 q-25 -18 -51 -15.5t-41 23.5q-17 20 -14.5 45.5z" />
<glyph unicode="&#xdc;" horiz-adv-x="1466" d="M156 526v893q0 29 19.5 49.5t47.5 20.5q29 0 49.5 -20.5t20.5 -49.5v-893q0 -104 37.5 -187.5t99.5 -135t141 -79.5t161 -28t161 28t141 79.5t99.5 135t37.5 187.5v893q0 29 19.5 49.5t48.5 20.5q28 0 48 -20.5t20 -49.5v-893q0 -136 -49.5 -246t-130.5 -177.5 t-184.5 -104t-211 -36.5t-211 37t-184.5 104.5t-130.5 177t-49.5 245.5zM295 1751q0 75 52.5 128.5t127.5 53.5q74 0 128 -53.5t54 -128.5q0 -74 -54 -127t-128 -53q-75 0 -127.5 52.5t-52.5 127.5zM395 1751q0 -32 24 -55t56 -23t55 23t23 55q0 33 -22.5 55.5t-55.5 22.5 t-56.5 -22.5t-23.5 -55.5zM436 543v876q0 29 20 49.5t48 20.5q29 0 49 -20.5t20 -49.5v-876q0 -45 17.5 -80t45.5 -53t62 -26.5t68 0t62 26.5t45.5 53t17.5 80v876q0 30 20 50t50 20q28 0 47.5 -20.5t19.5 -49.5v-876q0 -72 -25.5 -130.5t-67 -94.5t-94.5 -55.5t-109 -19.5 t-109 19.5t-94.5 55.5t-67 94.5t-25.5 130.5zM809 1751q0 75 53.5 128.5t128.5 53.5q74 0 127 -53.5t53 -128.5t-53 -127.5t-127 -52.5q-75 0 -128.5 52.5t-53.5 127.5zM909 1751q0 -32 24 -55t58 -23q31 0 54.5 23t23.5 55q0 33 -23.5 55.5t-54.5 22.5q-34 0 -58 -22.5 t-24 -55.5z" />
<glyph unicode="&#xdd;" horiz-adv-x="1382" d="M15 1456.5q6 27.5 30 42.5q23 16 51 10t43 -32l475 -760q13 -23 13 -41v-649q0 -29 -20 -49.5t-48 -20.5q-29 0 -49.5 20.5t-20.5 49.5v630l-466 748q-14 24 -8 51.5zM348 1458.5q7 27.5 33 40.5q23 15 51 9t41 -31l221 -375l221 375q15 25 43.5 31t51.5 -9 q24 -13 31 -40.5t-7 -53.5l-278 -467q-24 -39 -61.5 -38t-61.5 40l-277 465q-15 26 -8 53.5zM536 1642q-1 26 17 44l209 208q45 38 98 4q17 -20 17.5 -45t-13.5 -45l-213 -204q-21 -21 -47 -23t-47 18q-20 17 -21 43zM762 27v647q0 19 10 39l479 764q15 26 43 32t52 -10 q23 -15 29 -42t-9 -52l-465 -748v-630q0 -29 -21 -49.5t-49 -20.5t-48.5 20.5t-20.5 49.5z" />
<glyph unicode="&#xde;" horiz-adv-x="1304" d="M164 49v1354q0 32 21.5 50t47 18t47 -18t21.5 -50v-1354q0 -32 -21.5 -50t-47 -18t-47 18t-21.5 50zM436 49v277q0 27 21 47t49 20h266q80 0 144 29.5t103.5 77.5t61 109.5t21.5 125.5t-21.5 125.5t-61 109.5t-103.5 77.5t-144 29.5h-274q-26 3 -44 22.5t-18 45.5v258 q0 32 21.5 50t48 18t48 -18t21.5 -50v-191h197q112 0 203 -41t146.5 -108.5t85.5 -153t30 -175.5t-30.5 -175.5t-86 -153t-146 -108.5t-202.5 -41h-197v-207q0 -32 -21.5 -50t-48 -18t-48 18t-21.5 50zM438 871.5q0 25.5 18 47t50 21.5h242q56 0 100.5 -22.5t67.5 -59 t33.5 -80t0 -87t-33.5 -80t-67.5 -59t-100.5 -22.5q-6 0 -24.5 -0.5t-28 0t-26.5 1.5t-26.5 5.5t-20 12t-15.5 20t-5 29.5q0 20 8 34t17.5 21t28.5 10.5t30 3.5t33.5 -0.5t28.5 -0.5q44 0 62.5 34t0 68.5t-62.5 34.5h-242q-32 0 -50 21.5t-18 47z" />
<glyph unicode="&#xe0;" d="M37 86q-9 -26 2.5 -52t36.5 -38q26 -9 52 2t38 37l493 1243l494 -1243q10 -26 36.5 -37t53.5 -2q26 12 37 38t0 52l-557 1397q-12 31 -39 39q-25 11 -51.5 -0.5t-36.5 -38.5zM334 34q11 -26 37 -38q28 -9 53.5 2t34.5 37l35 80h331l33 -80q10 -27 36.5 -37.5t53.5 -1.5 q26 12 36 37.5t1 52.5l-49 119q-6 21 -24.5 35t-41.5 14h-424q-19 0 -36.5 -12t-26.5 -31l-49 -125q-11 -26 0 -52zM492 459q0 -29 19.5 -49.5t47.5 -20.5h199q29 0 50 20.5t21 49.5q0 14 -6 26l-100 246q-11 25 -36.5 35t-53.5 0q-25 -9 -35.5 -35t-1.5 -53l61 -152h-98 q-28 0 -47.5 -19t-19.5 -48zM496.5 1883.5q0.5 26.5 17.5 47.5q21 18 47.5 17t46.5 -21l205 -221q18 -18 17 -45t-21 -45q-21 -20 -46 -18.5t-46 22.5l-207 217q-14 20 -13.5 46.5z" />
<glyph unicode="&#xe1;" d="M37 86l559 1397q10 27 36.5 38.5t51.5 0.5q27 -8 39 -39l557 -1397q11 -26 0 -52t-37 -38q-27 -9 -53.5 2t-36.5 37l-494 1243l-493 -1243q-12 -26 -38 -37t-52 -2q-25 12 -36.5 38t-2.5 52zM334 34q-11 26 0 52l49 125q9 19 26.5 31t36.5 12h424q23 0 41.5 -14t24.5 -35 l49 -119q9 -27 -1 -52.5t-36 -37.5q-27 -9 -53.5 1.5t-36.5 37.5l-33 80h-331l-35 -80q-9 -26 -34.5 -37t-53.5 -2q-26 12 -37 38zM492 459q0 29 19.5 48t47.5 19h98l-61 152q-9 27 1.5 53t35.5 35q28 10 53.5 0t36.5 -35l100 -246q6 -12 6 -26q0 -29 -21 -49.5t-50 -20.5 h-199q-28 0 -47.5 20.5t-19.5 49.5zM499 1657q-1 27 17 45l205 221q20 20 46.5 21t47.5 -17q17 -21 17.5 -47.5t-13.5 -46.5l-207 -217q-21 -21 -46 -22.5t-46 18.5q-20 18 -21 45z" />
<glyph unicode="&#xe2;" d="M37 86q-9 -26 2.5 -52t36.5 -38q26 -9 52 2t38 37l493 1243l494 -1243q10 -26 36.5 -37t53.5 -2q26 12 37 38t0 52l-557 1397q-12 31 -39 39q-25 11 -51.5 -0.5t-36.5 -38.5zM334 34q11 -26 37 -38q28 -9 53.5 2t34.5 37l35 80h331l33 -80q10 -27 36.5 -37.5t53.5 -1.5 q26 12 36 37.5t1 52.5l-49 119q-6 21 -24.5 35t-41.5 14h-424q-19 0 -36.5 -12t-26.5 -31l-49 -125q-11 -26 0 -52zM372.5 1626.5q2.5 25.5 22.5 42.5l228 186q16 14 39 15t43 -15l227 -186q20 -17 22.5 -42.5t-14.5 -45.5q-19 -21 -44 -23.5t-46 15.5l-188 151l-183 -151 q-25 -18 -51 -15.5t-41 23.5q-17 20 -14.5 45.5zM492 459q0 -29 19.5 -49.5t47.5 -20.5h199q29 0 50 20.5t21 49.5q0 14 -6 26l-100 246q-11 25 -36.5 35t-53.5 0q-25 -9 -35.5 -35t-1.5 -53l61 -152h-98q-28 0 -47.5 -19t-19.5 -48z" />
<glyph unicode="&#xe3;" d="M37 86l559 1397q10 27 36.5 38.5t51.5 0.5q27 -8 39 -39l557 -1397q11 -26 0 -52t-37 -38q-27 -9 -53.5 2t-36.5 37l-494 1243l-493 -1243q-12 -26 -38 -37t-52 -2q-25 12 -36.5 38t-2.5 52zM334 34q-11 26 0 52l49 125q9 19 26.5 31t36.5 12h424q23 0 41.5 -14t24.5 -35 l49 -119q9 -27 -1 -52.5t-36 -37.5q-27 -9 -53.5 1.5t-36.5 37.5l-33 80h-331l-35 -80q-9 -26 -34.5 -37t-53.5 -2q-26 12 -37 38zM352 1664.5q-7 24.5 4 47.5q51 94 121.5 124.5t157.5 -15.5q24 -13 58.5 -39.5t47.5 -34.5q21 -13 39 -14.5t32 8t24.5 23t21.5 34.5 q10 22 35 29.5t49 -2.5q21 -12 28.5 -38.5t-3.5 -49.5q-29 -61 -71.5 -96.5t-95.5 -40.5t-112 30q-22 12 -54 38.5t-50 35.5q-22 12 -40 13.5t-32 -7t-24.5 -21t-20.5 -32.5q-27 -53 -88 -27q-20 10 -27 34.5zM492 459q0 29 19.5 48t47.5 19h98l-61 152q-9 27 1.5 53 t35.5 35q28 10 53.5 0t36.5 -35l100 -246q6 -12 6 -26q0 -29 -21 -49.5t-50 -20.5h-199q-28 0 -47.5 20.5t-19.5 49.5z" />
<glyph unicode="&#xe4;" d="M37 86l559 1397q10 27 36.5 38.5t51.5 0.5q27 -8 39 -39l557 -1397q11 -26 0 -52t-37 -38q-27 -9 -53.5 2t-36.5 37l-494 1243l-493 -1243q-12 -26 -38 -37t-52 -2q-25 12 -36.5 38t-2.5 52zM225 1722q0 72 53 123t128 51q74 0 128 -51t54 -123q0 -70 -54 -120t-128 -50 q-75 0 -128 50t-53 120zM326 1722q0 -29 24 -51t56 -22t54.5 21.5t22.5 51.5q0 32 -22.5 54t-54.5 22q-33 0 -56.5 -22t-23.5 -54zM334 34q-11 26 0 52l49 125q9 19 26.5 31t36.5 12h424q23 0 41.5 -14t24.5 -35l49 -119q9 -27 -1 -52.5t-36 -37.5q-27 -9 -53.5 1.5 t-36.5 37.5l-33 80h-331l-35 -80q-9 -26 -34.5 -37t-53.5 -2q-26 12 -37 38zM492 459q0 29 19.5 48t47.5 19h98l-61 152q-9 27 1.5 53t35.5 35q28 10 53.5 0t36.5 -35l100 -246q6 -12 6 -26q0 -29 -21 -49.5t-50 -20.5h-199q-28 0 -47.5 20.5t-19.5 49.5zM739 1722 q0 72 54 123t129 51q74 0 127 -51t53 -123q0 -70 -53 -120t-127 -50q-75 0 -129 50t-54 120zM840 1722q0 -29 24 -51t58 -22q31 0 54 22t23 51q0 32 -23 54t-54 22q-34 0 -58 -22t-24 -54z" />
<glyph unicode="&#xe5;" d="M37 86l491 1225q-60 34 -95.5 95t-35.5 134q0 113 76.5 189.5t190.5 76.5q115 0 189.5 -76.5t74.5 -189.5q0 -74 -36.5 -136.5t-98.5 -96.5l487 -1221q11 -26 0 -52t-37 -38q-27 -9 -53.5 2t-36.5 37l-494 1241h-2l-491 -1241q-12 -26 -38 -37t-52 -2q-25 12 -36.5 38 t-2.5 52zM334 34q-11 26 0 52l49 125q9 19 26.5 31t36.5 12h424q23 0 41.5 -14t24.5 -35l49 -119q9 -27 -1 -52.5t-36 -37.5q-27 -9 -53.5 1.5t-36.5 37.5l-33 80h-331l-35 -80q-9 -26 -34.5 -37t-53.5 -2q-26 12 -37 38zM492 459q0 29 19.5 48t47.5 19h98l-61 152 q-9 27 1.5 53t35.5 35q28 10 53.5 0t36.5 -35l100 -246q6 -12 6 -26q0 -29 -21 -49.5t-50 -20.5h-199q-28 0 -47.5 20.5t-19.5 49.5zM526 1540q0 -59 38.5 -96t99.5 -37q62 0 98.5 37t36.5 96q0 61 -36.5 98t-98.5 37q-60 0 -99 -37.5t-39 -97.5z" />
<glyph unicode="&#xe6;" horiz-adv-x="1787" d="M43.5 12q-11.5 26 1.5 54l631 1386q6 22 25 34.5t42 8.5h848q32 0 50 -21.5t18 -48t-18 -48t-50 -21.5h-581v-862q0 -72 -32 -93.5t-106 -21.5h-280q-39 0 -60.5 32t-7.5 66l109 271q17 39 55.5 41.5t64.5 -27t11 -70.5l-70 -172h178v836h-90l-606 -1342 q-12 -26 -39.5 -38.5t-52.5 -0.5q-29 11 -40.5 37zM345.5 12.5q-11.5 26.5 0.5 53.5l51 120q3 22 22.5 36t43.5 14h416q77 0 104 -24t27 -103h594q34 0 53.5 -22t19.5 -48t-19.5 -48t-53.5 -22h-660q-33 0 -52.5 20t-19.5 50v59h-362l-33 -84q-11 -25 -40.5 -38t-53.5 -1 q-26 11 -37.5 37.5zM1149 317q0 -29 18.5 -50t46.5 -21h390q34 0 53.5 22.5t19.5 49t-19.5 49t-53.5 22.5h-320v135h248q27 0 48.5 20.5t21.5 47.5q0 31 -21.5 51.5t-48.5 20.5h-318q-29 0 -47 -20t-18 -52v-275zM1149 872q0 -29 18.5 -50t46.5 -21h318q26 0 48 21.5 t22 49.5q0 27 -21.5 48.5t-48.5 21.5h-248v139h307q43 0 60 34.5t0 69t-60 34.5h-377q-29 0 -47 -19t-18 -47v-281z" />
<glyph unicode="&#xe7;" horiz-adv-x="1284" d="M98 735q-1 118 29 230t93 211.5t153 174.5t217.5 118.5t277.5 43.5q158 0 303 -59q29 -12 37.5 -39t-1 -50.5t-34.5 -36.5t-55 -1q-119 51 -256 51q-181 0 -326 -84.5t-225 -230.5t-80 -324q1 -98 26.5 -190t78 -173t127 -141.5t179 -95.5t226.5 -35q121 0 250 50 q24 9 45.5 3.5t33 -23t15.5 -37t-7 -39.5t-34 -29q-148 -60 -303 -60q-9 0 -26.5 1t-26.5 1v-4l-18 -98q85 -1 130.5 -22.5t78.5 -65.5q34 -51 36.5 -108t-21.5 -104t-71.5 -81.5t-107.5 -42.5q-131 -20 -301 80q-23 13 -29 38t6 48q13 23 38.5 28.5t49.5 -6.5 q127 -73 217 -59q52 5 77.5 46.5t-1.5 88.5q-38 50 -164 35q-34 -3 -57 19t-16 59l26 166q-114 23 -211 75.5t-165.5 124.5t-117 161.5t-72 186.5t-24.5 199zM391 739q0 103 32.5 190.5t88 148t130.5 100t157 51t171 -5t171 -62.5q23 -12 31.5 -32.5t3 -39.5t-19 -35 t-35 -19t-44.5 9q-88 49 -186 52t-178.5 -34.5t-133.5 -122.5t-53 -200q0 -161 97 -255t237 -99q116 -3 217 53q23 11 44.5 7.5t35 -19.5t19 -35t-3 -39.5t-31.5 -32.5q-128 -74 -279 -71q-94 2 -179 36.5t-150 96.5t-103.5 155t-38.5 203z" />
<glyph unicode="&#xe8;" horiz-adv-x="1120" d="M164 47q0 -28 19.5 -47.5t47.5 -19.5h709q29 0 49.5 19.5t20.5 47.5q0 29 -20.5 49.5t-49.5 20.5h-639v1231h639q29 0 49.5 20t20.5 49q0 28 -20.5 48t-49.5 20h-709q-28 0 -47.5 -20t-19.5 -48v-1370zM392.5 1864q0.5 25 17.5 45q21 15 47.5 14.5t46.5 -18.5l203 -207 q17 -17 16 -42t-21 -42q-21 -18 -45 -16.5t-45 20.5l-206 203q-14 18 -13.5 43zM436 322q0 -28 20.5 -48t49.5 -20h434q29 0 49.5 20t20.5 48q0 29 -20.5 49t-49.5 20h-367v135h240q29 0 49.5 20.5t20.5 49.5q0 28 -20.5 48t-49.5 20h-307q-29 0 -49.5 -20t-20.5 -48v-274z M436 868q0 -28 20.5 -47.5t49.5 -19.5h307q29 0 49.5 19.5t20.5 47.5q0 29 -20.5 49.5t-49.5 20.5h-240v137h367q29 0 49.5 20t20.5 48q0 29 -20 48t-50 19h-434q-30 0 -50 -19t-20 -48v-275z" />
<glyph unicode="&#xe9;" horiz-adv-x="1120" d="M164 47v1370q0 28 19.5 48t47.5 20h709q29 0 49.5 -20t20.5 -48q0 -29 -20.5 -49t-49.5 -20h-639v-1231h639q29 0 49.5 -20.5t20.5 -49.5q0 -28 -20.5 -47.5t-49.5 -19.5h-709q-28 0 -47.5 19.5t-19.5 47.5zM436 322v274q0 28 20.5 48t49.5 20h307q29 0 49.5 -20 t20.5 -48q0 -29 -20.5 -49.5t-49.5 -20.5h-240v-135h367q29 0 49.5 -20t20.5 -49q0 -28 -20.5 -48t-49.5 -20h-434q-29 0 -49.5 20t-20.5 48zM436 868v275q0 29 20 48t50 19h434q30 0 50 -19t20 -48q0 -28 -20.5 -48t-49.5 -20h-367v-137h240q29 0 49.5 -20.5t20.5 -49.5 q0 -28 -20.5 -47.5t-49.5 -19.5h-307q-29 0 -49.5 19.5t-20.5 47.5zM455 1644q-1 25 18 42l217 208q21 18 50.5 18.5t52.5 -14.5q17 -20 17.5 -45t-13.5 -43l-222 -204q-22 -21 -49 -22.5t-49 18.5q-21 17 -22 42z" />
<glyph unicode="&#xea;" horiz-adv-x="1120" d="M164 47q0 -28 19.5 -47.5t47.5 -19.5h709q29 0 49.5 19.5t20.5 47.5q0 29 -20.5 49.5t-49.5 20.5h-639v1231h639q29 0 49.5 20t20.5 49q0 28 -20.5 48t-49.5 20h-709q-28 0 -47.5 -20t-19.5 -48v-1370zM299 1649.5q3 25.5 23 42.5l227 186q16 14 39 15t43 -15l227 -186 q20 -17 22.5 -42.5t-14.5 -45.5q-19 -21 -44 -24t-46 15l-188 152l-182 -152q-25 -18 -51.5 -15t-41.5 24q-17 20 -14 45.5zM436 322q0 -28 20.5 -48t49.5 -20h434q29 0 49.5 20t20.5 48q0 29 -20.5 49t-49.5 20h-367v135h240q29 0 49.5 20.5t20.5 49.5q0 28 -20.5 48 t-49.5 20h-307q-29 0 -49.5 -20t-20.5 -48v-274zM436 868q0 -28 20.5 -47.5t49.5 -19.5h307q29 0 49.5 19.5t20.5 47.5q0 29 -20.5 49.5t-49.5 20.5h-240v137h367q29 0 49.5 20t20.5 48q0 29 -20 48t-50 19h-434q-30 0 -50 -19t-20 -48v-275z" />
<glyph unicode="&#xeb;" horiz-adv-x="1120" d="M164 47v1370q0 28 19.5 48t47.5 20h709q29 0 49.5 -20t20.5 -48q0 -29 -20.5 -49t-49.5 -20h-639v-1231h639q29 0 49.5 -20.5t20.5 -49.5q0 -28 -20.5 -47.5t-49.5 -19.5h-709q-28 0 -47.5 19.5t-19.5 47.5zM176 1737q0 69 50.5 117.5t123.5 48.5q71 0 122.5 -48.5 t51.5 -117.5t-51.5 -117.5t-122.5 -48.5q-73 0 -123.5 48.5t-50.5 117.5zM272 1737q0 -29 23 -50.5t55 -21.5q31 0 52.5 21.5t21.5 50.5q0 30 -21.5 50.5t-52.5 20.5q-33 0 -55.5 -20.5t-22.5 -50.5zM436 322v274q0 28 20.5 48t49.5 20h307q29 0 49.5 -20t20.5 -48 q0 -29 -20.5 -49.5t-49.5 -20.5h-240v-135h367q29 0 49.5 -20t20.5 -49q0 -28 -20.5 -48t-49.5 -20h-434q-29 0 -49.5 20t-20.5 48zM436 868v275q0 29 20 48t50 19h434q30 0 50 -19t20 -48q0 -28 -20.5 -48t-49.5 -20h-367v-137h240q29 0 49.5 -20.5t20.5 -49.5 q0 -28 -20.5 -47.5t-49.5 -19.5h-307q-29 0 -49.5 19.5t-20.5 47.5zM670 1737q0 69 52 117.5t124 48.5q71 0 122.5 -48.5t51.5 -117.5t-51.5 -117.5t-122.5 -48.5q-72 0 -124 48.5t-52 117.5zM768 1737q0 -29 23 -50.5t55 -21.5q30 0 53 21.5t23 50.5q0 30 -23 50.5 t-53 20.5q-33 0 -55.5 -20.5t-22.5 -50.5z" />
<glyph unicode="&#xec;" horiz-adv-x="741" d="M164 47q0 -28 20 -47.5t49 -19.5q28 0 48 19.5t20 47.5v1370q0 28 -20 48t-48 20q-29 0 -49 -20t-20 -48v-1370zM203.5 1859q0.5 27 17.5 48q21 18 47.5 17t46.5 -21l205 -222q18 -18 17 -45t-21 -45q-21 -20 -46 -18.5t-46 22.5l-207 217q-14 20 -13.5 47zM438 47 q0 -28 20.5 -47.5t49.5 -19.5q28 0 47.5 19.5t19.5 47.5v1370q0 28 -19.5 48t-47.5 20q-29 0 -49.5 -20t-20.5 -48v-1370z" />
<glyph unicode="&#xed;" horiz-adv-x="741" d="M164 47v1370q0 28 20 48t49 20q28 0 48 -20t20 -48v-1370q0 -28 -20 -47.5t-48 -19.5q-29 0 -49 19.5t-20 47.5zM204 1626q-1 27 17 45l205 221q20 20 46.5 21t47.5 -17q17 -21 17.5 -47.5t-13.5 -46.5l-207 -217q-21 -21 -46 -22.5t-46 18.5q-20 18 -21 45zM438 47v1370 q0 28 20.5 48t49.5 20q28 0 47.5 -20t19.5 -48v-1370q0 -28 -19.5 -47.5t-47.5 -19.5q-29 0 -49.5 19.5t-20.5 47.5z" />
<glyph unicode="&#xee;" horiz-adv-x="741" d="M79.5 1663.5q2.5 25.5 22.5 42.5l228 186q16 14 39 15t43 -15l227 -186q20 -17 22.5 -42.5t-14.5 -45.5q-19 -21 -44 -23.5t-46 15.5l-188 151l-183 -151q-25 -18 -51 -15.5t-41 23.5q-17 20 -14.5 45.5zM164 47q0 -28 20 -47.5t49 -19.5q28 0 48 19.5t20 47.5v1370 q0 28 -20 48t-48 20q-29 0 -49 -20t-20 -48v-1370zM438 47q0 -28 20.5 -47.5t49.5 -19.5q28 0 47.5 19.5t19.5 47.5v1370q0 28 -19.5 48t-47.5 20q-29 0 -49.5 -20t-20.5 -48v-1370z" />
<glyph unicode="&#xef;" horiz-adv-x="741" d="M-43 1757q0 72 52.5 124t127.5 52q74 0 128 -52t54 -124t-54 -123t-128 -51q-75 0 -127.5 51t-52.5 123zM57 1757q0 -31 24 -53.5t56 -22.5t55 22.5t23 53.5q0 32 -23 54t-55 22q-33 0 -56.5 -22t-23.5 -54zM164 47v1370q0 28 20 48t49 20q28 0 48 -20t20 -48v-1370 q0 -28 -20 -47.5t-48 -19.5q-29 0 -49 19.5t-20 47.5zM408 1757q0 72 53.5 124t128.5 52q74 0 127 -52t53 -124t-53 -123t-127 -51q-75 0 -128.5 51t-53.5 123zM438 47v1370q0 28 20.5 48t49.5 20q28 0 47.5 -20t19.5 -48v-1370q0 -28 -19.5 -47.5t-47.5 -19.5 q-29 0 -49.5 19.5t-20.5 47.5zM508 1757q0 -31 24 -53.5t58 -22.5q31 0 54.5 22.5t23.5 53.5q0 32 -23.5 54t-54.5 22q-34 0 -58 -22t-24 -54z" />
<glyph unicode="&#xf0;" horiz-adv-x="1505" d="M4 707.5q0 25.5 18 47t50 21.5h92v641q0 28 19.5 48t47.5 20h410q164 0 305 -57t239 -156.5t154 -239t56 -299.5q0 -215 -95 -386.5t-267.5 -269t-391.5 -97.5h-137q-28 0 -48 19.5t-20 47.5q0 29 20 49.5t48 20.5h137q181 0 321.5 79t217.5 219t77 318q0 269 -171.5 442 t-444.5 173h-340v-1301q0 -28 -20.5 -47.5t-49.5 -19.5q-28 0 -47.5 19.5t-19.5 47.5v592h-92q-32 0 -50 21.5t-18 47zM438 322q0 28 20 47.5t48 19.5h135q150 0 241 97.5t91 246.5q0 148 -91 245t-241 97h-68v-299h164q32 0 50 -21.5t18 -47t-18 -47t-50 -21.5h-231 q-28 0 -48 20.5t-20 49.5v434q0 29 20 49t48 20h135q207 0 337 -137t130 -342q0 -206 -130 -343.5t-337 -137.5h-135q-28 0 -48 20.5t-20 49.5z" />
<glyph unicode="&#xf1;" horiz-adv-x="1583" d="M164 47v1370q0 28 19.5 47t47.5 19q29 0 48.5 -19t19.5 -47v-1370q0 -28 -19.5 -49t-48.5 -21q-27 0 -47 21t-20 49zM412 1428q5 27 28 42q24 18 52 13t43 -29l471 -674v637q0 27 20.5 46.5t48.5 19.5t48 -19t20 -47v-852q0 -38 -31 -57q-23 -17 -50 -12t-44 28l-594 852 q-17 25 -12 52zM438 47v852q0 38 29 55q22 19 50.5 14t43.5 -30l596 -852q15 -23 10.5 -50t-26.5 -46q-25 -15 -52.5 -10t-44.5 28l-471 674v-635q0 -28 -20 -47.5t-49 -19.5q-28 0 -47 19.5t-19 47.5zM473.5 1656.5q-7.5 24.5 3.5 47.5q53 93 126 122.5t161 -16.5 q25 -13 60.5 -39t49.5 -34q22 -12 40 -13.5t32.5 7.5t25 22.5t21.5 34.5q12 23 37 30t51 -3q21 -12 28.5 -39t-3.5 -50q-46 -91 -120 -121t-167 17q-22 11 -55 38t-53 36q-74 38 -119 -47q-13 -26 -38 -33t-52 6q-21 10 -28.5 34.5zM1280 47v1370q0 28 20 47t48 19 q29 0 49 -19t20 -47v-1370q0 -28 -20 -49t-49 -21q-28 0 -48 21t-20 49z" />
<glyph unicode="&#xf2;" horiz-adv-x="1763" d="M114 734.5q0 -146.5 50.5 -287t143.5 -250.5t245 -177t340 -67q255 0 469 151q100 72 174.5 174.5t112.5 221.5q8 28 -5 54.5t-40 33.5q-28 8 -54.5 -5t-33.5 -40q-66 -204 -238 -326q-167 -123 -385 -123q-204 0 -354 95t-217.5 237.5t-67.5 308.5t67.5 308.5 t217.5 237.5t354 95q213 0 385 -123q172 -125 238 -325q7 -28 33.5 -41t54.5 -4q27 7 40 32.5t5 53.5q-76 242 -287 397q-212 150 -469 150q-188 0 -340 -67t-245 -177t-143.5 -250.5t-50.5 -287zM463.5 540q-7.5 -27 7.5 -53q65 -115 178 -184q117 -65 244 -65 q206 0 350 147q141 148 141 350t-141 350q-146 146 -350 146q-130 0 -244 -66q-112 -65 -178 -182q-15 -26 -7.5 -54t32.5 -42q26 -14 53.5 -6t40.5 34q51 82 131 129q79 48 172 48q146 0 248 -105q104 -99 104 -252q0 -155 -104 -254q-96 -104 -248 -104q-95 0 -172 49 q-77 42 -131 129q-13 26 -40.5 33.5t-53.5 -6.5q-25 -15 -32.5 -42zM695.5 1898q0.5 27 17.5 48q21 18 47.5 17t46.5 -21l205 -222q18 -18 17 -45t-21 -45q-21 -20 -46.5 -18.5t-46.5 22.5l-206 217q-14 20 -13.5 47z" />
<glyph unicode="&#xf3;" horiz-adv-x="1763" d="M114 734.5q0 146.5 50.5 287t143.5 250.5t245 177t340 67q257 0 469 -150q211 -155 287 -397q8 -28 -5 -53.5t-40 -32.5q-28 -9 -54.5 4t-33.5 41q-66 200 -238 325q-172 123 -385 123q-124 0 -230 -36t-180.5 -97.5t-127.5 -143.5t-77.5 -174.5t-24.5 -189.5 t24.5 -189.5t77.5 -174.5t127.5 -143.5t180.5 -97.5t230 -36q218 0 385 123q172 122 238 326q7 27 33.5 40t54.5 5q27 -7 40 -33.5t5 -54.5q-38 -119 -112.5 -221.5t-174.5 -174.5q-214 -151 -469 -151q-188 0 -340 67t-245 177t-143.5 250.5t-50.5 287zM463.5 540 q7.5 27 32.5 42q26 14 53.5 6.5t40.5 -33.5q54 -87 131 -129q77 -49 172 -49q152 0 248 104q104 99 104 254q0 153 -104 252q-102 105 -248 105q-93 0 -172 -48q-80 -47 -131 -129q-13 -26 -40.5 -34t-53.5 6q-25 14 -32.5 42t7.5 54q66 117 178 182q114 66 244 66 q204 0 350 -146q141 -148 141 -350t-141 -350q-144 -147 -350 -147q-127 0 -244 65q-113 69 -178 184q-15 26 -7.5 53zM759 1679q-1 27 17 45l205 222q20 20 46.5 21t47.5 -17q17 -21 17.5 -48t-13.5 -47l-207 -217q-21 -21 -46 -22.5t-46 18.5q-20 18 -21 45z" />
<glyph unicode="&#xf4;" horiz-adv-x="1763" d="M114 734.5q0 -146.5 50.5 -287t143.5 -250.5t245 -177t340 -67q255 0 469 151q100 72 174.5 174.5t112.5 221.5q8 28 -5 54.5t-40 33.5q-28 8 -54.5 -5t-33.5 -40q-66 -204 -238 -326q-167 -123 -385 -123q-204 0 -354 95t-217.5 237.5t-67.5 308.5t67.5 308.5 t217.5 237.5t354 95q213 0 385 -123q172 -125 238 -325q7 -28 33.5 -41t54.5 -4q27 7 40 32.5t5 53.5q-76 242 -287 397q-212 150 -469 150q-188 0 -340 -67t-245 -177t-143.5 -250.5t-50.5 -287zM463.5 540q-7.5 -27 7.5 -53q65 -115 178 -184q117 -65 244 -65 q206 0 350 147q141 148 141 350t-141 350q-146 146 -350 146q-130 0 -244 -66q-112 -65 -178 -182q-15 -26 -7.5 -54t32.5 -42q26 -14 53.5 -6t40.5 34q51 82 131 129q79 48 172 48q146 0 248 -105q104 -99 104 -252q0 -155 -104 -254q-96 -104 -248 -104q-95 0 -172 49 q-77 42 -131 129q-13 26 -40.5 33.5t-53.5 -6.5q-25 -15 -32.5 -42zM589.5 1702.5q2.5 25.5 22.5 42.5l228 186q16 14 39 15t43 -15l227 -186q20 -17 22.5 -42.5t-14.5 -45.5q-19 -21 -44 -23.5t-46 15.5l-188 151l-183 -151q-25 -18 -51 -15.5t-41 23.5q-17 20 -14.5 45.5z " />
<glyph unicode="&#xf5;" horiz-adv-x="1763" d="M114 734.5q0 146.5 50.5 287t143.5 250.5t245 177t340 67q257 0 469 -150q211 -155 287 -397q8 -28 -5 -53.5t-40 -32.5q-28 -9 -54.5 4t-33.5 41q-66 200 -238 325q-172 123 -385 123q-124 0 -230 -36t-180.5 -97.5t-127.5 -143.5t-77.5 -174.5t-24.5 -189.5 t24.5 -189.5t77.5 -174.5t127.5 -143.5t180.5 -97.5t230 -36q218 0 385 123q172 122 238 326q7 27 33.5 40t54.5 5q27 -7 40 -33.5t5 -54.5q-38 -119 -112.5 -221.5t-174.5 -174.5q-214 -151 -469 -151q-188 0 -340 67t-245 177t-143.5 250.5t-50.5 287zM463.5 540 q7.5 27 32.5 42q26 14 53.5 6.5t40.5 -33.5q54 -87 131 -129q77 -49 172 -49q152 0 248 104q104 99 104 254q0 153 -104 252q-102 105 -248 105q-93 0 -172 -48q-80 -47 -131 -129q-13 -26 -40.5 -34t-53.5 6q-25 14 -32.5 42t7.5 54q66 117 178 182q114 66 244 66 q204 0 350 -146q141 -148 141 -350t-141 -350q-144 -147 -350 -147q-127 0 -244 65q-113 69 -178 184q-15 26 -7.5 53zM563.5 1711.5q-7.5 24.5 3.5 47.5q53 93 126 123t161 -16q25 -13 61 -39.5t50 -34.5q22 -12 40 -13.5t32 7.5t24.5 22.5t21.5 34.5q12 23 37 30t51 -3 q21 -12 28.5 -38.5t-3.5 -49.5q-46 -92 -120 -122t-167 17q-22 11 -55 38t-53 36q-74 38 -119 -47q-13 -26 -38 -33t-52 6q-21 10 -28.5 34.5z" />
<glyph unicode="&#xf6;" horiz-adv-x="1763" d="M114 734.5q0 146.5 50.5 287t143.5 250.5t245 177t340 67q257 0 469 -150q211 -155 287 -397q8 -28 -5 -53.5t-40 -32.5q-28 -9 -54.5 4t-33.5 41q-66 200 -238 325q-172 123 -385 123q-124 0 -230 -36t-180.5 -97.5t-127.5 -143.5t-77.5 -174.5t-24.5 -189.5 t24.5 -189.5t77.5 -174.5t127.5 -143.5t180.5 -97.5t230 -36q218 0 385 123q172 122 238 326q7 27 33.5 40t54.5 5q27 -7 40 -33.5t5 -54.5q-38 -119 -112.5 -221.5t-174.5 -174.5q-214 -151 -469 -151q-188 0 -340 67t-245 177t-143.5 250.5t-50.5 287zM442 1763 q0 75 53 129t128 54q74 0 128 -54t54 -129q0 -74 -54 -127t-128 -53q-75 0 -128 52.5t-53 127.5zM463.5 540q7.5 27 32.5 42q26 14 53.5 6.5t40.5 -33.5q54 -87 131 -129q77 -49 172 -49q152 0 248 104q104 99 104 254q0 153 -104 252q-102 105 -248 105q-93 0 -172 -48 q-80 -47 -131 -129q-13 -26 -40.5 -34t-53.5 6q-25 14 -32.5 42t7.5 54q66 117 178 182q114 66 244 66q204 0 350 -146q141 -148 141 -350t-141 -350q-144 -147 -350 -147q-127 0 -244 65q-113 69 -178 184q-15 26 -7.5 53zM543 1763q0 -32 23.5 -54.5t56.5 -22.5 q32 0 54.5 22.5t22.5 54.5q0 33 -22 55.5t-55 22.5t-56.5 -22.5t-23.5 -55.5zM956 1763q0 75 54 129t129 54q74 0 127 -54t53 -129t-53 -127.5t-127 -52.5q-75 0 -129 52.5t-54 127.5zM1057 1763q0 -32 24 -54.5t58 -22.5q31 0 54.5 22.5t23.5 54.5q0 33 -23.5 55.5 t-54.5 22.5q-34 0 -58 -22.5t-24 -55.5z" />
<glyph unicode="&#xf8;" horiz-adv-x="1712" d="M93.5 702.5q-4.5 120.5 22 233.5t89 215.5t151.5 179t217.5 121.5t280.5 45q174 0 324 -67l88 147q10 23 35 29t45 -7q20 -12 26.5 -35.5t-4.5 -45.5l-84 -146q22 -18 31 -22q208 -155 280 -387q9 -26 -5 -51t-42 -33q-26 -9 -50.5 4t-33.5 39q-62 196 -229 319 q-2 2 -18 10l-76 -125q32 -26 55 -51q67 -65 104 -154t37 -188t-37 -188t-104 -154q-65 -70 -153.5 -108.5t-188.5 -38.5q-123 0 -238 67q-110 64 -174 176q-15 26 -8 55.5t31 43.5q26 12 53.5 4.5t40.5 -31.5q21 -46 68 -86l342 592q-59 18 -115 18q-93 0 -166 -49 q-79 -44 -129 -125q-13 -25 -40.5 -32.5t-53.5 6.5q-24 14 -31 40.5t8 51.5q69 121 174 182q116 64 238 64q108 0 182 -35l74 125q-126 49 -256 49q-152 0 -274.5 -54t-198 -142t-116 -200.5t-40.5 -230.5t40.5 -230.5t116 -200.5t198 -142t274.5 -54q215 0 381 119 q167 126 229 320q9 27 33.5 40.5t50.5 4.5q28 -9 42 -34.5t5 -51.5q-36 -118 -109 -217.5t-171 -169.5q-203 -148 -461 -148q-186 0 -342 70l-84 -152q-12 -21 -37 -26.5t-47 6.5q-23 12 -29 35.5t7 44.5l88 149q-99 68 -169.5 166.5t-106.5 209t-40.5 231zM729 410 q62 -27 125 -27q146 0 246 100q100 108 100 250q0 71 -26.5 136.5t-73.5 113.5q-5 3 -14.5 10.5t-14.5 10.5z" />
<glyph unicode="&#xf9;" horiz-adv-x="1466" d="M156 526q0 -136 49.5 -245.5t130.5 -177t184.5 -104.5t211 -37t211 36.5t184.5 104t130.5 177.5t49.5 246v893q0 29 -20 49.5t-48 20.5q-29 0 -48.5 -20.5t-19.5 -49.5v-893q0 -104 -37.5 -187.5t-99.5 -135t-141 -79.5t-161 -28t-161 28t-141 79.5t-99.5 135 t-37.5 187.5v893q0 29 -20.5 49.5t-49.5 20.5q-28 0 -47.5 -20.5t-19.5 -49.5v-893zM436 543q0 -72 25.5 -130.5t67 -94.5t94.5 -55.5t109 -19.5t109 19.5t94.5 55.5t67 94.5t25.5 130.5v876q0 29 -19.5 49.5t-47.5 20.5q-30 0 -50 -20t-20 -50v-876q0 -45 -17.5 -80 t-45.5 -53t-62 -26.5t-68 0t-62 26.5t-45.5 53t-17.5 80v876q0 29 -20 49.5t-49 20.5q-28 0 -48 -20.5t-20 -49.5v-876zM539.5 1859q0.5 27 17.5 48q21 18 47.5 17t46.5 -21l205 -222q18 -18 17 -45t-21 -45q-21 -20 -46 -18.5t-46 22.5l-207 217q-14 20 -13.5 47z" />
<glyph unicode="&#xfa;" horiz-adv-x="1466" d="M156 526v893q0 29 19.5 49.5t47.5 20.5q29 0 49.5 -20.5t20.5 -49.5v-893q0 -104 37.5 -187.5t99.5 -135t141 -79.5t161 -28t161 28t141 79.5t99.5 135t37.5 187.5v893q0 29 19.5 49.5t48.5 20.5q28 0 48 -20.5t20 -49.5v-893q0 -136 -49.5 -246t-130.5 -177.5 t-184.5 -104t-211 -36.5t-211 37t-184.5 104.5t-130.5 177t-49.5 245.5zM436 543v876q0 29 20 49.5t48 20.5q29 0 49 -20.5t20 -49.5v-876q0 -45 17.5 -80t45.5 -53t62 -26.5t68 0t62 26.5t45.5 53t17.5 80v876q0 30 20 50t50 20q28 0 47.5 -20.5t19.5 -49.5v-876 q0 -72 -25.5 -130.5t-67 -94.5t-94.5 -55.5t-109 -19.5t-109 19.5t-94.5 55.5t-67 94.5t-25.5 130.5zM567 1626q-1 27 17 45l204 221q20 20 47 21t48 -17q17 -21 17.5 -47.5t-13.5 -46.5l-207 -217q-21 -21 -46 -22.5t-46 18.5q-20 18 -21 45z" />
<glyph unicode="&#xfb;" horiz-adv-x="1466" d="M156 526q0 -136 49.5 -245.5t130.5 -177t184.5 -104.5t211 -37t211 36.5t184.5 104t130.5 177.5t49.5 246v893q0 29 -20 49.5t-48 20.5q-29 0 -48.5 -20.5t-19.5 -49.5v-893q0 -104 -37.5 -187.5t-99.5 -135t-141 -79.5t-161 -28t-161 28t-141 79.5t-99.5 135 t-37.5 187.5v893q0 29 -20.5 49.5t-49.5 20.5q-28 0 -47.5 -20.5t-19.5 -49.5v-893zM436 543q0 -72 25.5 -130.5t67 -94.5t94.5 -55.5t109 -19.5t109 19.5t94.5 55.5t67 94.5t25.5 130.5v876q0 29 -19.5 49.5t-47.5 20.5q-30 0 -50 -20t-20 -50v-876q0 -45 -17.5 -80 t-45.5 -53t-62 -26.5t-68 0t-62 26.5t-45.5 53t-17.5 80v876q0 29 -20 49.5t-49 20.5q-28 0 -48 -20.5t-20 -49.5v-876zM442.5 1679.5q2.5 25.5 22.5 42.5l227 187q16 14 39 15t43 -15l227 -187q20 -17 23 -42.5t-14 -45.5q-19 -21 -44 -23.5t-46 15.5l-189 152l-182 -152 q-25 -18 -51 -15.5t-41 23.5q-17 20 -14.5 45.5z" />
<glyph unicode="&#xfc;" horiz-adv-x="1466" d="M156 526v893q0 29 19.5 49.5t47.5 20.5q29 0 49.5 -20.5t20.5 -49.5v-893q0 -104 37.5 -187.5t99.5 -135t141 -79.5t161 -28t161 28t141 79.5t99.5 135t37.5 187.5v893q0 29 19.5 49.5t48.5 20.5q28 0 48 -20.5t20 -49.5v-893q0 -136 -49.5 -246t-130.5 -177.5 t-184.5 -104t-211 -36.5t-211 37t-184.5 104.5t-130.5 177t-49.5 245.5zM295 1751q0 75 52.5 128.5t127.5 53.5q74 0 128 -53.5t54 -128.5q0 -74 -54 -127t-128 -53q-75 0 -127.5 52.5t-52.5 127.5zM395 1751q0 -32 24 -55t56 -23t55 23t23 55q0 33 -22.5 55.5t-55.5 22.5 t-56.5 -22.5t-23.5 -55.5zM436 543v876q0 29 20 49.5t48 20.5q29 0 49 -20.5t20 -49.5v-876q0 -45 17.5 -80t45.5 -53t62 -26.5t68 0t62 26.5t45.5 53t17.5 80v876q0 30 20 50t50 20q28 0 47.5 -20.5t19.5 -49.5v-876q0 -72 -25.5 -130.5t-67 -94.5t-94.5 -55.5t-109 -19.5 t-109 19.5t-94.5 55.5t-67 94.5t-25.5 130.5zM809 1751q0 75 53.5 128.5t128.5 53.5q74 0 127 -53.5t53 -128.5t-53 -127.5t-127 -52.5q-75 0 -128.5 52.5t-53.5 127.5zM909 1751q0 -32 24 -55t58 -23q31 0 54.5 23t23.5 55q0 33 -23.5 55.5t-54.5 22.5q-34 0 -58 -22.5 t-24 -55.5z" />
<glyph unicode="&#xfd;" horiz-adv-x="1382" d="M15 1456.5q6 27.5 30 42.5q23 16 51 10t43 -32l475 -760q13 -23 13 -41v-649q0 -29 -20 -49.5t-48 -20.5q-29 0 -49.5 20.5t-20.5 49.5v630l-466 748q-14 24 -8 51.5zM348 1458.5q7 27.5 33 40.5q23 15 51 9t41 -31l221 -375l221 375q15 25 43.5 31t51.5 -9 q24 -13 31 -40.5t-7 -53.5l-278 -467q-24 -39 -61.5 -38t-61.5 40l-277 465q-15 26 -8 53.5zM536 1642q-1 26 17 44l209 208q45 38 98 4q17 -20 17.5 -45t-13.5 -45l-213 -204q-21 -21 -47 -23t-47 18q-20 17 -21 43zM762 27v647q0 19 10 39l479 764q15 26 43 32t52 -10 q23 -15 29 -42t-9 -52l-465 -748v-630q0 -29 -21 -49.5t-49 -20.5t-48.5 20.5t-20.5 49.5z" />
<glyph unicode="&#xfe;" horiz-adv-x="1304" d="M164 49v1354q0 32 21.5 50t47 18t47 -18t21.5 -50v-1354q0 -32 -21.5 -50t-47 -18t-47 18t-21.5 50zM436 49v277q0 27 21 47t49 20h266q80 0 144 29.5t103.5 77.5t61 109.5t21.5 125.5t-21.5 125.5t-61 109.5t-103.5 77.5t-144 29.5h-274q-26 3 -44 22.5t-18 45.5v258 q0 32 21.5 50t48 18t48 -18t21.5 -50v-191h197q112 0 203 -41t146.5 -108.5t85.5 -153t30 -175.5t-30.5 -175.5t-86 -153t-146 -108.5t-202.5 -41h-197v-207q0 -32 -21.5 -50t-48 -18t-48 18t-21.5 50zM438 871.5q0 25.5 18 47t50 21.5h242q56 0 100.5 -22.5t67.5 -59 t33.5 -80t0 -87t-33.5 -80t-67.5 -59t-100.5 -22.5q-6 0 -24.5 -0.5t-28 0t-26.5 1.5t-26.5 5.5t-20 12t-15.5 20t-5 29.5q0 20 8 34t17.5 21t28.5 10.5t30 3.5t33.5 -0.5t28.5 -0.5q44 0 62.5 34t0 68.5t-62.5 34.5h-242q-32 0 -50 21.5t-18 47z" />
<glyph unicode="&#xff;" horiz-adv-x="1382" d="M15 1456.5q6 27.5 30 42.5q23 16 51 10t43 -32l475 -760q13 -23 13 -41v-649q0 -29 -20 -49.5t-48 -20.5q-29 0 -49.5 20.5t-20.5 49.5v630l-466 748q-14 24 -8 51.5zM223 1772q0 77 56 130.5t135 53.5q78 0 135 -54t57 -130q0 -75 -57 -129t-135 -54q-79 0 -135 54 t-56 129zM330 1772q0 -32 25 -55t59 -23t58 23t24 55q0 33 -24 56t-58 23t-59 -23t-25 -56zM348 1458.5q7 27.5 33 40.5q23 15 51 9t41 -31l221 -375l221 375q15 25 43.5 31t51.5 -9q24 -13 31 -40.5t-7 -53.5l-278 -467q-24 -39 -61.5 -38t-61.5 40l-277 465 q-15 26 -8 53.5zM762 27v647q0 19 10 39l479 764q15 26 43 32t52 -10q23 -15 29 -42t-9 -52l-465 -748v-630q0 -29 -21 -49.5t-49 -20.5t-48.5 20.5t-20.5 49.5zM766 1772q0 76 57 130t135 54t134.5 -54t56.5 -130q0 -75 -56.5 -129t-134.5 -54t-135 54t-57 129zM872 1772 q0 -32 25.5 -55t60.5 -23q33 0 58.5 23t25.5 55q0 33 -25.5 56t-58.5 23q-36 0 -61 -23t-25 -56z" />
<glyph unicode="&#x152;" horiz-adv-x="1839" d="M73.5 729q0.5 146 51 285.5t143.5 249t244 176.5t338 67q66 0 151 -10h650q30 0 50.5 -21.5t20.5 -52.5q0 -27 -20.5 -46t-50.5 -19h-561q-47 0 -125.5 7t-114.5 7q-124 0 -229 -36t-179 -97.5t-127 -143.5t-77.5 -174.5t-24.5 -189.5t24.5 -189.5t77.5 -174.5 t127 -143.5t179 -97.5t229 -36q44 0 147.5 9.5t161.5 9.5h492q30 0 50.5 -21t20.5 -49q0 -31 -20.5 -52.5t-50.5 -21.5h-650q-71 -14 -151 -14q-187 0 -338.5 67t-244.5 176.5t-143.5 249t-50 285.5zM423.5 925.5q-6.5 26.5 6.5 53.5q54 111 180 184q122 66 240 66 q78 0 182 -33v-14v-142v-616v-129v-25q-105 -37 -182 -37q-125 0 -240 72q-123 65 -180 182q-27 59 25 93q26 13 54.5 5.5t43.5 -32.5q45 -91 125 -129q93 -49 172 -49h45v710q-17 5 -45 5q-95 0 -172 -50q-83 -45 -125 -131q-15 -25 -43 -32t-55 10q-25 12 -31.5 38.5z M1167 313v279q0 29 22 48t52 19h313q26 0 47 -19.5t21 -47.5t-21 -48t-47 -20h-245v-139h342q30 0 50.5 -21t20.5 -51q0 -28 -20.5 -48.5t-50.5 -20.5h-410q-29 0 -51.5 20.5t-22.5 48.5zM1167 872v277q0 28 22.5 49t51.5 21h410q30 0 50.5 -21t20.5 -49q0 -29 -20 -48.5 t-51 -19.5h-342v-143h245q26 0 47 -19.5t21 -46.5q0 -30 -21 -50.5t-47 -20.5h-313q-30 0 -52 20.5t-22 50.5z" />
<glyph unicode="&#x153;" horiz-adv-x="1839" d="M73.5 729q0.5 146 51 285.5t143.5 249t244 176.5t338 67q66 0 151 -10h650q30 0 50.5 -21.5t20.5 -52.5q0 -27 -20.5 -46t-50.5 -19h-561q-47 0 -125.5 7t-114.5 7q-124 0 -229 -36t-179 -97.5t-127 -143.5t-77.5 -174.5t-24.5 -189.5t24.5 -189.5t77.5 -174.5 t127 -143.5t179 -97.5t229 -36q44 0 147.5 9.5t161.5 9.5h492q30 0 50.5 -21t20.5 -49q0 -31 -20.5 -52.5t-50.5 -21.5h-650q-71 -14 -151 -14q-187 0 -338.5 67t-244.5 176.5t-143.5 249t-50 285.5zM423.5 925.5q-6.5 26.5 6.5 53.5q54 111 180 184q122 66 240 66 q78 0 182 -33v-14v-142v-616v-129v-25q-105 -37 -182 -37q-125 0 -240 72q-123 65 -180 182q-27 59 25 93q26 13 54.5 5.5t43.5 -32.5q45 -91 125 -129q93 -49 172 -49h45v710q-17 5 -45 5q-95 0 -172 -50q-83 -45 -125 -131q-15 -25 -43 -32t-55 10q-25 12 -31.5 38.5z M1167 313v279q0 29 22 48t52 19h313q26 0 47 -19.5t21 -47.5t-21 -48t-47 -20h-245v-139h342q30 0 50.5 -21t20.5 -51q0 -28 -20.5 -48.5t-50.5 -20.5h-410q-29 0 -51.5 20.5t-22.5 48.5zM1167 872v277q0 28 22.5 49t51.5 21h410q30 0 50.5 -21t20.5 -49q0 -29 -20 -48.5 t-51 -19.5h-342v-143h245q26 0 47 -19.5t21 -46.5q0 -30 -21 -50.5t-47 -20.5h-313q-30 0 -52 20.5t-22 50.5z" />
<glyph unicode="&#x178;" horiz-adv-x="1382" d="M15 1456.5q6 27.5 30 42.5q23 16 51 10t43 -32l475 -760q13 -23 13 -41v-649q0 -29 -20 -49.5t-48 -20.5q-29 0 -49.5 20.5t-20.5 49.5v630l-466 748q-14 24 -8 51.5zM223 1772q0 77 56 130.5t135 53.5q78 0 135 -54t57 -130q0 -75 -57 -129t-135 -54q-79 0 -135 54 t-56 129zM330 1772q0 -32 25 -55t59 -23t58 23t24 55q0 33 -24 56t-58 23t-59 -23t-25 -56zM348 1458.5q7 27.5 33 40.5q23 15 51 9t41 -31l221 -375l221 375q15 25 43.5 31t51.5 -9q24 -13 31 -40.5t-7 -53.5l-278 -467q-24 -39 -61.5 -38t-61.5 40l-277 465 q-15 26 -8 53.5zM762 27v647q0 19 10 39l479 764q15 26 43 32t52 -10q23 -15 29 -42t-9 -52l-465 -748v-630q0 -29 -21 -49.5t-49 -20.5t-48.5 20.5t-20.5 49.5zM766 1772q0 76 57 130t135 54t134.5 -54t56.5 -130q0 -75 -56.5 -129t-134.5 -54t-135 54t-57 129zM872 1772 q0 -32 25.5 -55t60.5 -23q33 0 58.5 23t25.5 55q0 33 -25.5 56t-58.5 23q-36 0 -61 -23t-25 -56z" />
<glyph unicode="&#x2c6;" horiz-adv-x="735" d="M73.5 1239.5q2.5 25.5 22.5 42.5l228 186q16 14 39 15t43 -15l227 -186q20 -17 22.5 -42.5t-14.5 -45.5q-19 -21 -44 -23.5t-46 15.5l-189 151l-182 -151q-25 -18 -51 -15.5t-41 23.5q-17 20 -14.5 45.5z" />
<glyph unicode="&#x2dc;" horiz-adv-x="806" d="M86.5 1304.5q-7.5 24.5 3.5 47.5q53 93 126 122.5t161 -16.5q25 -13 60.5 -39.5t49.5 -34.5q22 -12 40 -13.5t32.5 8t25 23t21.5 34.5q12 22 37 29t51 -3q21 -12 28.5 -38.5t-3.5 -49.5q-46 -91 -120 -121t-167 17q-22 11 -55 37.5t-53 35.5q-74 38 -119 -47 q-27 -53 -90 -26q-21 10 -28.5 34.5z" />
<glyph unicode="&#x2000;" horiz-adv-x="983" />
<glyph unicode="&#x2001;" horiz-adv-x="1967" />
<glyph unicode="&#x2002;" horiz-adv-x="983" />
<glyph unicode="&#x2003;" horiz-adv-x="1967" />
<glyph unicode="&#x2004;" horiz-adv-x="655" />
<glyph unicode="&#x2005;" horiz-adv-x="491" />
<glyph unicode="&#x2006;" horiz-adv-x="327" />
<glyph unicode="&#x2007;" horiz-adv-x="327" />
<glyph unicode="&#x2008;" horiz-adv-x="245" />
<glyph unicode="&#x2009;" horiz-adv-x="393" />
<glyph unicode="&#x200a;" horiz-adv-x="109" />
<glyph unicode="&#x2010;" horiz-adv-x="811" d="M69 713.5q0 25.5 18 47t50 21.5h502q32 0 50 -21.5t18 -47t-18 -47t-50 -21.5h-502q-32 0 -50 21.5t-18 47z" />
<glyph unicode="&#x2011;" horiz-adv-x="811" d="M69 713.5q0 25.5 18 47t50 21.5h502q32 0 50 -21.5t18 -47t-18 -47t-50 -21.5h-502q-32 0 -50 21.5t-18 47z" />
<glyph unicode="&#x2012;" horiz-adv-x="811" d="M69 713.5q0 25.5 18 47t50 21.5h502q32 0 50 -21.5t18 -47t-18 -47t-50 -21.5h-502q-32 0 -50 21.5t-18 47z" />
<glyph unicode="&#x2013;" horiz-adv-x="927" d="M69 713.5q0 25.5 18 47t50 21.5h662q32 0 50 -21.5t18 -47t-18 -47t-50 -21.5h-662q-32 0 -50 21.5t-18 47z" />
<glyph unicode="&#x2014;" horiz-adv-x="1179" d="M69 713.5q0 25.5 18 47t50 21.5h893q32 0 50 -21.5t18 -47t-18 -47t-50 -21.5h-893q-32 0 -50 21.5t-18 47z" />
<glyph unicode="&#x2018;" horiz-adv-x="364" d="M82 1188l80 252q7 24 25.5 37t38.5 12t38 -10t26.5 -29.5t0.5 -44.5l-84 -250q-9 -27 -31 -40.5t-49 -4.5q-26 6 -39.5 29.5t-5.5 48.5z" />
<glyph unicode="&#x2019;" horiz-adv-x="364" d="M82 1188l80 252q7 24 25.5 37t38.5 12t38 -10t26.5 -29.5t0.5 -44.5l-84 -250q-9 -27 -31 -40.5t-49 -4.5q-26 6 -39.5 29.5t-5.5 48.5z" />
<glyph unicode="&#x201a;" horiz-adv-x="540" d="M20 -205l93 398q4 26 24 39.5t43 7.5q26 -6 39 -27.5t8 -46.5l-71 -326h96l133 361q9 24 31 35t45 2q22 -8 33 -31.5t2 -46.5l-148 -396q-10 -43 -55 -43h-211q-8 0 -14 3q-25 6 -38.5 25.5t-9.5 45.5z" />
<glyph unicode="&#x201c;" horiz-adv-x="608" d="M82 1188l80 252q7 24 25.5 37t38.5 12t38 -10t26.5 -29.5t0.5 -44.5l-84 -250q-9 -27 -31 -40.5t-49 -4.5q-26 6 -39.5 29.5t-5.5 48.5zM340 1188l80 252q9 30 33.5 41.5t48 5t39 -28.5t8.5 -53l-84 -250q-9 -27 -31 -40.5t-49 -4.5q-26 6 -39.5 29.5t-5.5 48.5z" />
<glyph unicode="&#x201d;" horiz-adv-x="608" d="M82 1188l80 252q7 24 25.5 37t38.5 12t38 -10t26.5 -29.5t0.5 -44.5l-84 -250q-9 -27 -31 -40.5t-49 -4.5q-26 6 -39.5 29.5t-5.5 48.5zM340 1188l80 252q9 30 33.5 41.5t48 5t39 -28.5t8.5 -53l-84 -250q-9 -27 -31 -40.5t-49 -4.5q-26 6 -39.5 29.5t-5.5 48.5z" />
<glyph unicode="&#x201e;" horiz-adv-x="1036" d="M20 -205l93 398q4 26 24 39.5t43 7.5q26 -6 39 -27.5t8 -46.5l-71 -326h96l133 361q9 24 31 35t45 2q22 -8 33 -31.5t2 -46.5l-148 -396q-10 -43 -55 -43h-211q-8 0 -14 3q-25 6 -38.5 25.5t-9.5 45.5zM506 -205l92 398q4 26 24 39.5t44 7.5q26 -6 39 -27.5t8 -46.5 l-72 -326h96l133 361q9 24 31 35t45 2q22 -8 33 -31.5t2 -46.5l-147 -396q-4 -20 -19.5 -31.5t-36.5 -11.5h-211q-8 0 -14 3q-25 6 -38 25.5t-9 45.5z" />
<glyph unicode="&#x2022;" horiz-adv-x="505" d="M31 682q0 93 62 155t155 62t154 -62t61 -155q0 -90 -61 -152.5t-154 -62.5t-155 62t-62 153z" />
<glyph unicode="&#x2026;" horiz-adv-x="1517" d="M31 184q0 93 62 155t155 62t154 -62t61 -155q0 -90 -61 -152.5t-154 -62.5t-155 62t-62 153zM150 184q0 -42 27.5 -68t70.5 -26q44 0 70 26t26 68q0 43 -26 70t-70 27q-43 0 -70.5 -27t-27.5 -70zM537 184q0 93 62 155t155 62t154 -62t61 -155q0 -90 -61 -152.5 t-154 -62.5t-155 62t-62 153zM655 184q0 -42 28 -68t71 -26q44 0 70 26t26 68q0 43 -26 70t-70 27q-43 0 -71 -27t-28 -70zM1042 184q0 92 62 154.5t156 62.5q93 0 154 -62t61 -155q0 -90 -61 -152.5t-154 -62.5t-155.5 62t-62.5 153zM1161 184q0 -42 28 -68t71 -26 q44 0 70 26t26 68q0 43 -26 70t-70 27q-43 0 -71 -27t-28 -70z" />
<glyph unicode="&#x202f;" horiz-adv-x="393" />
<glyph unicode="&#x205f;" horiz-adv-x="491" />
<glyph unicode="&#x20ac;" horiz-adv-x="1153" d="M-16.5 577.5q-14.5 30.5 1 61.5t52.5 31h74q-2 20 -2 65l2 45h-72q-37 0 -51.5 31t1 61.5t52.5 30.5h86q21 100 64 189t110 166.5t152.5 134t199 88.5t242.5 32q47 0 96 -6q46 -5 57.5 -42t-12.5 -69t-63 -24q-43 6 -86 6q-181 0 -328 -84.5t-230 -230.5t-87 -324 q-2 -124 35 -235.5t110 -202t193 -144t272 -53.5q56 0 133 17q54 15 83 -14t13 -68.5t-69 -50.5q-87 -19 -162 -19q-155 0 -283.5 46t-216 127t-144 183t-79.5 222h-92q-37 0 -51.5 30.5zM401 739q3 123 51.5 223t125.5 161.5t175 89.5t201 16q49 -6 65 -40t-8.5 -64.5 t-74.5 -26.5q-114 9 -213.5 -42t-149.5 -153h244q23 0 38.5 -12.5t18.5 -30.5t-1 -36.5t-19.5 -31t-38.5 -12.5h-276l-2 -41q0 -29 4 -69h272q23 0 38.5 -12.5t18.5 -31t-1 -36.5t-19.5 -30.5t-38.5 -12.5h-231q38 -75 109.5 -117t160.5 -45q58 0 104 10q51 10 78 -18.5 t11 -66t-72 -50.5q-65 -12 -123 -12q-194 3 -322.5 136.5t-124.5 354.5z" />
<glyph unicode="&#x25fc;" horiz-adv-x="1505" d="M0 0v1505h1505v-1505h-1505z" />
</font>
</defs>
</svg>
